  0
SECTION
  2
HEADER
  9
$ACADVER
  1
AC1014
  9
$HANDSEED
  5
FFFF
  9
$MEASUREMENT
 70
     1
  0
ENDSEC
  0
SECTION
  2
TABLES
  0
TABLE
  2
VPORT
  5
8
330
0
100
AcDbSymbolTable
 70
     4
  0
VPORT
  5
2E
330
8
100
AcDbSymbolTableRecord
100
AcDbViewportTableRecord
  2
*ACTIVE
 70
     0
 10
0.0
 20
0.0
 11
1.0
 21
1.0
 12
210.0
 22
148.5
 13
0.0
 23
0.0
 14
10.0
 24
10.0
 15
10.0
 25
10.0
 16
0.0
 26
0.0
 36
1.0
 17
0.0
 27
0.0
 37
0.0
 40
341.0
 41
1.24
 42
50.0
 43
0.0
 44
0.0
 50
0.0
 51
0.0
 71
     0
 72
   100
 73
     1
 74
     3
 75
     0
 76
     0
 77
     0
 78
     0
  0
ENDTAB
  0
TABLE
  2
LTYPE
  5
5
330
0
100
AcDbSymbolTable
 70
     1
  0
LTYPE
  5
14
330
5
100
AcDbSymbolTableRecord
100
AcDbLinetypeTableRecord
  2
BYBLOCK
 70
     0
  3

 72
    65
 73
     0
 40
0.0
  0
LTYPE
  5
15
330
5
100
AcDbSymbolTableRecord
100
AcDbLinetypeTableRecord
  2
BYLAYER
 70
     0
  3

 72
    65
 73
     0
 40
0.0
  0
LTYPE
  5
16
330
5
100
AcDbSymbolTableRecord
100
AcDbLinetypeTableRecord
  2
CONTINUOUS
 70
     0
  3
Solid line
 72
    65
 73
     0
 40
0.0
  0
ENDTAB
  0
TABLE
  2
LAYER
  5
2
100
AcDbSymbolTable
 70
2
  0
LAYER
  5
50
100
AcDbSymbolTableRecord
100
AcDbLayerTableRecord
  2
0
 70
0
  6
CONTINUOUS
  0
LAYER
  5
51
100
AcDbSymbolTableRecord
100
AcDbLayerTableRecord
  2
layer
 70
0
  6
CONTINUOUS
  0
ENDTAB
  0
TABLE
  2
STYLE
  5
3
330
0
100
AcDbSymbolTable
 70
     1
  0
STYLE
  5
11
330
3
100
AcDbSymbolTableRecord
100
AcDbTextStyleTableRecord
  2
STANDARD
 70
     0
 40
0.0
 41
1.0
 50
0.0
 71
     0
 42
2.5
  3
txt
  4

  0
ENDTAB
  0
TABLE
  2
VIEW
  5
6
330
0
100
AcDbSymbolTable
 70
     0
  0
ENDTAB
  0
TABLE
  2
UCS
  5
7
330
0
100
AcDbSymbolTable
 70
     0
  0
ENDTAB
  0
TABLE
  2
APPID
  5
9
330
0
100
AcDbSymbolTable
 70
     2
  0
APPID
  5
12
330
9
100
AcDbSymbolTableRecord
100
AcDbRegAppTableRecord
  2
ACAD
 70
     0
  0
ENDTAB
  0
TABLE
  2
DIMSTYLE
  5
A
330
0
100
AcDbSymbolTable
 70
     1
  0
DIMSTYLE
105
27
330
A
100
AcDbSymbolTableRecord
100
AcDbDimStyleTableRecord
  2
ISO-25
 70
     0
  3

  4

  5

  6

  7

 40
1.0
 41
2.5
 42
0.625
 43
3.75
 44
1.25
 45
0.0
 46
0.0
 47
0.0
 48
0.0
140
2.5
141
2.5
142
0.0
143
0.03937007874016
144
1.0
145
0.0
146
1.0
147
0.625
 71
     0
 72
     0
 73
     0
 74
     0
 75
     0
 76
     0
 77
     1
 78
     8
170
     0
171
     3
172
     1
173
     0
174
     0
175
     0
176
     0
177
     0
178
     0
270
     2
271
     2
272
     2
273
     2
274
     3
340
11
275
     0
280
     0
281
     0
282
     0
283
     0
284
     8
285
     0
286
     0
287
     3
288
     0
  0
ENDTAB
  0
TABLE
  2
BLOCK_RECORD
  5
1
330
0
100
AcDbSymbolTable
 70
     1
  0
BLOCK_RECORD
  5
1F
330
1
100
AcDbSymbolTableRecord
100
AcDbBlockTableRecord
  2
*MODEL_SPACE
  0
BLOCK_RECORD
  5
1B
330
1
100
AcDbSymbolTableRecord
100
AcDbBlockTableRecord
  2
*PAPER_SPACE
  0
ENDTAB
  0
ENDSEC
  0
SECTION
  2
BLOCKS
  0
BLOCK
  5
20
330
1F
100
AcDbEntity
  8
0
100
AcDbBlockBegin
  2
*MODEL_SPACE
 70
     0
 10
0.0
 20
0.0
 30
0.0
  3
*MODEL_SPACE
  1

  0
ENDBLK
  5
21
330
1F
100
AcDbEntity
  8
0
100
AcDbBlockEnd
  0
BLOCK
  5
1C
330
1B
100
AcDbEntity
 67
     1
  8
0
100
AcDbBlockBegin
  2
*PAPER_SPACE
  1

  0
ENDBLK
  5
1D
330
1B
100
AcDbEntity
 67
     1
  8
0
100
AcDbBlockEnd
  0
ENDSEC
  0
SECTION
  2
ENTITIES
  0
LWPOLYLINE
  5
100
100
AcDbEntity
  8
layer
 62
7
100
AcDbPolyline
 90
201
 70
0
 10
20.854706
 20
11.924264
 30
0.0
 10
20.854706
 20
17.410764
 30
0.0
 10
20.854706
 20
22.897263
 30
0.0
 10
20.854706
 20
28.383762
 30
0.0
 10
20.854706
 20
33.870262
 30
0.0
 10
20.854706
 20
39.356761
 30
0.0
 10
20.854706
 20
44.843261
 30
0.0
 10
20.854706
 20
50.329760
 30
0.0
 10
20.854706
 20
55.816260
 30
0.0
 10
20.831142
 20
56.496261
 30
0.0
 10
20.760472
 20
57.097964
 30
0.0
 10
20.642697
 20
57.621369
 30
0.0
 10
20.477816
 20
58.066500
 30
0.0
 10
20.265808
 20
58.433332
 30
0.0
 10
20.006698
 20
58.721866
 30
0.0
 10
19.700477
 20
58.932102
 30
0.0
 10
19.347147
 20
59.063946
 30
0.0
 10
19.143008
 20
59.121909
 30
0.0
 10
18.938847
 20
59.179872
 30
0.0
 10
18.734707
 20
59.237836
 30
0.0
 10
18.530546
 20
59.295799
 30
0.0
 10
18.326406
 20
59.353763
 30
0.0
 10
18.122245
 20
59.411726
 30
0.0
 10
17.918106
 20
59.469690
 30
0.0
 10
17.713966
 20
59.527653
 30
0.0
 10
17.242845
 20
59.689190
 30
0.0
 10
16.834540
 20
59.895863
 30
0.0
 10
16.489053
 20
60.147434
 30
0.0
 10
16.206384
 20
60.443926
 30
0.0
 10
15.986530
 20
60.785388
 30
0.0
 10
15.829497
 20
61.171819
 30
0.0
 10
15.735285
 20
61.603171
 30
0.0
 10
15.703874
 20
62.079493
 30
0.0
 10
15.718668
 20
62.382874
 30
0.0
 10
15.762837
 20
62.666657
 30
0.0
 10
15.836443
 20
62.930914
 30
0.0
 10
15.939489
 20
63.175572
 30
0.0
 10
16.071994
 20
63.400774
 30
0.0
 10
16.233938
 20
63.606259
 30
0.0
 10
16.425341
 20
63.792264
 30
0.0
 10
16.646181
 20
63.958553
 30
0.0
 10
16.895802
 20
64.105362
 30
0.0
 10
17.173559
 20
64.232454
 30
0.0
 10
17.479455
 20
64.340066
 30
0.0
 10
17.813486
 20
64.428199
 30
0.0
 10
18.175659
 20
64.496615
 30
0.0
 10
18.565966
 20
64.545551
 30
0.0
 10
18.984413
 20
64.575008
 30
0.0
 10
19.430996
 20
64.584510
 30
0.0
 10
19.603746
 20
64.589261
 30
0.0
 10
19.776496
 20
64.594013
 30
0.0
 10
19.949246
 20
64.598764
 30
0.0
 10
20.121996
 20
64.603515
 30
0.0
 10
20.294746
 20
64.608266
 30
0.0
 10
20.467496
 20
64.613017
 30
0.0
 10
20.640246
 20
64.617768
 30
0.0
 10
20.812996
 20
64.622519
 30
0.0
 10
23.142401
 20
64.622519
 30
0.0
 10
25.471803
 20
64.622519
 30
0.0
 10
27.801207
 20
64.622519
 30
0.0
 10
30.130611
 20
64.622519
 30
0.0
 10
32.460015
 20
64.622519
 30
0.0
 10
34.789417
 20
64.622519
 30
0.0
 10
37.118822
 20
64.622519
 30
0.0
 10
39.448226
 20
64.622519
 30
0.0
 10
39.589565
 20
64.627270
 30
0.0
 10
39.730904
 20
64.632021
 30
0.0
 10
39.872243
 20
64.636772
 30
0.0
 10
40.013582
 20
64.641524
 30
0.0
 10
40.154921
 20
64.646275
 30
0.0
 10
40.296260
 20
64.651026
 30
0.0
 10
40.437599
 20
64.655777
 30
0.0
 10
40.578937
 20
64.660528
 30
0.0
 10
40.767382
 20
64.636772
 30
0.0
 10
40.955827
 20
64.613017
 30
0.0
 10
41.144272
 20
64.589261
 30
0.0
 10
41.332717
 20
64.565506
 30
0.0
 10
41.521162
 20
64.541750
 30
0.0
 10
41.709606
 20
64.517995
 30
0.0
 10
41.898051
 20
64.494239
 30
0.0
 10
42.086496
 20
64.470484
 30
0.0
 10
42.469263
 20
64.323200
 30
0.0
 10
42.800997
 20
64.136957
 30
0.0
 10
43.081698
 20
63.911517
 30
0.0
 10
43.311364
 20
63.646904
 30
0.0
 10
43.489988
 20
63.343143
 30
0.0
 10
43.617584
 20
63.000232
 30
0.0
 10
43.694149
 20
62.618196
 30
0.0
 10
43.719686
 20
62.197011
 30
0.0
 10
43.693506
 20
61.751857
 30
0.0
 10
43.614968
 20
61.344426
 30
0.0
 10
43.484092
 20
60.974696
 30
0.0
 10
43.300879
 20
60.642641
 30
0.0
 10
43.065324
 20
60.348310
 30
0.0
 10
42.777425
 20
60.091680
 30
0.0
 10
42.437187
 20
59.872654
 30
0.0
 10
42.044605
 20
59.691400
 30
0.0
 10
41.877086
 20
59.633436
 30
0.0
 10
41.709568
 20
59.575473
 30
0.0
 10
41.542049
 20
59.517509
 30
0.0
 10
41.374531
 20
59.459546
 30
0.0
 10
41.207013
 20
59.401582
 30
0.0
 10
41.039494
 20
59.343619
 30
0.0
 10
40.871976
 20
59.285656
 30
0.0
 10
40.704457
 20
59.227692
 30
0.0
 10
40.409998
 20
59.078270
 30
0.0
 10
40.154801
 20
58.862095
 30
0.0
 10
39.938866
 20
58.579357
 30
0.0
 10
39.762193
 20
58.229914
 30
0.0
 10
39.624777
 20
57.813788
 30
0.0
 10
39.526642
 20
57.330982
 30
0.0
 10
39.467765
 20
56.781469
 30
0.0
 10
39.448254
 20
56.165275
 30
0.0
 10
39.448254
 20
51.316730
 30
0.0
 10
39.448254
 20
46.468208
 30
0.0
 10
39.448254
 20
41.619663
 30
0.0
 10
39.448254
 20
36.771141
 30
0.0
 10
39.448254
 20
31.922596
 30
0.0
 10
39.448254
 20
27.074050
 30
0.0
 10
39.448254
 20
22.225529
 30
0.0
 10
39.448254
 20
17.376983
 30
0.0
 10
39.369737
 20
15.317381
 30
0.0
 10
39.134169
 20
13.383897
 30
0.0
 10
38.741563
 20
11.576579
 30
0.0
 10
38.191924
 20
9.895402
 30
0.0
 10
37.485252
 20
8.340343
 30
0.0
 10
36.621547
 20
6.911449
 30
0.0
 10
35.600806
 20
5.608698
 30
0.0
 10
34.423030
 20
4.432088
 30
0.0
 10
33.805988
 20
3.924266
 30
0.0
 10
33.148382
 20
3.444690
 30
0.0
 10
32.450213
 20
2.993407
 30
0.0
 10
31.711476
 20
2.570393
 30
0.0
 10
30.932174
 20
2.175648
 30
0.0
 10
30.112307
 20
1.809195
 30
0.0
 10
29.251874
 20
1.470988
 30
0.0
 10
28.350877
 20
1.161074
 30
0.0
 10
27.423035
 20
0.883776
 30
0.0
 10
26.482108
 20
0.643441
 30
0.0
 10
25.528096
 20
0.440094
 30
0.0
 10
24.561000
 20
0.273806
 30
0.0
 10
23.580819
 20
0.144338
 30
0.0
 10
22.587553
 20
0.051929
 30
0.0
 10
21.581203
 20
-0.003421
 30
0.0
 10
20.561770
 20
-0.022425
 30
0.0
 10
20.368072
 20
-0.020976
 30
0.0
 10
20.142979
 20
-0.016225
 30
0.0
 10
19.886480
 20
-0.009098
 30
0.0
 10
19.598575
 20
0.000404
 30
0.0
 10
19.279265
 20
0.012282
 30
0.0
 10
18.928548
 20
0.028910
 30
0.0
 10
18.546425
 20
0.047915
 30
0.0
 10
18.132897
 20
0.069295
 30
0.0
 10
18.132897
 20
0.742051
 30
0.0
 10
18.132897
 20
1.414830
 30
0.0
 10
18.132897
 20
2.087586
 30
0.0
 10
18.132897
 20
2.760342
 30
0.0
 10
18.132897
 20
3.433098
 30
0.0
 10
18.132897
 20
4.105877
 30
0.0
 10
18.132897
 20
4.778633
 30
0.0
 10
18.132897
 20
5.451389
 30
0.0
 10
18.203567
 20
5.507214
 30
0.0
 10
18.269004
 20
5.558764
 30
0.0
 10
18.329211
 20
5.605799
 30
0.0
 10
18.384164
 20
5.648559
 30
0.0
 10
18.433886
 20
5.687043
 30
0.0
 10
18.478376
 20
5.721251
 30
0.0
 10
18.517634
 20
5.750946
 30
0.0
 10
18.551661
 20
5.776364
 30
0.0
 10
18.753506
 20
5.946453
 30
0.0
 10
18.940322
 20
6.108466
 30
0.0
 10
19.112085
 20
6.262402
 30
0.0
 10
19.268798
 20
6.408498
 30
0.0
 10
19.410458
 20
6.546517
 30
0.0
 10
19.537067
 20
6.676698
 30
0.0
 10
19.648646
 20
6.798801
 30
0.0
 10
19.745173
 20
6.913065
 30
0.0
 10
19.832524
 20
7.026616
 30
0.0
 10
19.916594
 20
7.146581
 30
0.0
 10
19.997405
 20
7.273198
 30
0.0
 10
20.074936
 20
7.406229
 30
0.0
 10
20.149207
 20
7.545674
 30
0.0
 10
20.220198
 20
7.691770
 30
0.0
 10
20.287930
 20
7.844280
 30
0.0
 10
20.352382
 20
8.003442
 30
0.0
 10
20.470157
 20
8.399256
 30
0.0
 10
20.572238
 20
8.821178
 30
0.0
 10
20.658602
 20
9.269207
 30
0.0
 10
20.729272
 20
9.743343
 30
0.0
 10
20.784246
 20
10.243562
 30
0.0
 10
20.823505
 20
10.769889
 30
0.0
 10
20.847068
 20
11.322323
 30
0.0
 10
20.855001
 20
11.900841
 30
0.0
 10
20.855001
 20
11.900841
 30
0.0
 10
20.855001
 20
11.900841
 30
0.0
 10
20.855001
 20
11.900841
 30
0.0
 10
20.855001
 20
11.900865
 30
0.0
 10
20.855001
 20
11.900865
 30
0.0
 10
20.855001
 20
11.900865
 30
0.0
 10
20.855001
 20
11.900865
 30
0.0
 10
20.854706
 20
11.924264
 30
0.0
  0
LWPOLYLINE
  5
101
100
AcDbEntity
  8
layer
 62
7
100
AcDbPolyline
 90
113
 70
0
 10
14.363784
 20
5.475002
 30
0.0
 10
14.363784
 20
4.837024
 30
0.0
 10
14.363784
 20
4.199070
 30
0.0
 10
14.363784
 20
3.561116
 30
0.0
 10
14.363784
 20
2.923138
 30
0.0
 10
14.363784
 20
2.285184
 30
0.0
 10
14.363784
 20
1.647206
 30
0.0
 10
14.363784
 20
1.009229
 30
0.0
 10
14.363784
 20
0.371275
 30
0.0
 10
13.087844
 20
0.624295
 30
0.0
 10
11.877336
 20
0.919362
 30
0.0
 10
10.732263
 20
1.256452
 30
0.0
 10
9.652624
 20
1.635614
 30
0.0
 10
8.638418
 20
2.056823
 30
0.0
 10
7.689644
 20
2.520079
 30
0.0
 10
6.806305
 20
3.025358
 30
0.0
 10
5.988400
 20
3.572709
 30
0.0
 10
5.296448
 20
4.109535
 30
0.0
 10
4.644411
 20
4.676104
 30
0.0
 10
4.032288
 20
5.272391
 30
0.0
 10
3.460077
 20
5.898396
 30
0.0
 10
2.927783
 20
6.554119
 30
0.0
 10
2.435404
 20
7.239560
 30
0.0
 10
1.982937
 20
7.954720
 30
0.0
 10
1.570385
 20
8.699621
 30
0.0
 10
1.202327
 20
9.466259
 30
0.0
 10
0.883343
 20
10.246674
 30
0.0
 10
0.613433
 20
11.040868
 30
0.0
 10
0.392597
 20
11.848840
 30
0.0
 10
0.220834
 20
12.670591
 30
0.0
 10
0.098148
 20
13.506119
 30
0.0
 10
0.024541
 20
14.355402
 30
0.0
 10
0.000013
 20
15.218463
 30
0.0
 10
0.040901
 20
16.255153
 30
0.0
 10
0.163586
 20
17.254144
 30
0.0
 10
0.368069
 20
18.215434
 30
0.0
 10
0.654338
 20
19.139048
 30
0.0
 10
1.022396
 20
20.024938
 30
0.0
 10
1.472245
 20
20.873152
 30
0.0
 10
2.003887
 20
21.683666
 30
0.0
 10
2.617318
 20
22.456480
 30
0.0
 10
3.287668
 20
23.163301
 30
0.0
 10
3.990083
 20
23.775908
 30
0.0
 10
4.724564
 20
24.294229
 30
0.0
 10
5.491109
 20
24.718336
 30
0.0
 10
6.289717
 20
25.048205
 30
0.0
 10
7.120390
 20
25.283859
 30
0.0
 10
7.983124
 20
25.425205
 30
0.0
 10
8.877918
 20
25.472241
 30
0.0
 10
9.730830
 20
25.429718
 30
0.0
 10
10.551680
 20
25.302389
 30
0.0
 10
11.340469
 20
25.090252
 30
0.0
 10
12.097198
 20
24.793380
 30
0.0
 10
12.821865
 20
24.411676
 30
0.0
 10
13.514471
 20
23.945166
 30
0.0
 10
14.175018
 20
23.393848
 30
0.0
 10
14.803503
 20
22.757699
 30
0.0
 10
15.377669
 20
22.062091
 30
0.0
 10
15.875282
 20
21.332417
 30
0.0
 10
16.296337
 20
20.568654
 30
0.0
 10
16.640840
 20
19.770849
 30
0.0
 10
16.908786
 20
18.938955
 30
0.0
 10
17.100169
 20
18.072996
 30
0.0
 10
17.215006
 20
17.172971
 30
0.0
 10
17.253279
 20
16.238857
 30
0.0
 10
17.225148
 20
15.503007
 30
0.0
 10
17.140735
 20
14.780222
 30
0.0
 10
17.000061
 20
14.070479
 30
0.0
 10
16.803104
 20
13.373801
 30
0.0
 10
16.549879
 20
12.690165
 30
0.0
 10
16.240385
 20
12.019571
 30
0.0
 10
15.874621
 20
11.362043
 30
0.0
 10
15.452585
 20
10.717556
 30
0.0
 10
15.131961
 20
10.297796
 30
0.0
 10
14.777312
 20
9.896898
 30
0.0
 10
14.388641
 20
9.514839
 30
0.0
 10
13.965945
 20
9.151641
 30
0.0
 10
13.509226
 20
8.807281
 30
0.0
 10
13.018483
 20
8.481783
 30
0.0
 10
12.493715
 20
8.175123
 30
0.0
 10
11.934924
 20
7.887325
 30
0.0
 10
11.757607
 20
7.785889
 30
0.0
 10
11.602525
 20
7.690155
 30
0.0
 10
11.469698
 20
7.600359
 30
0.0
 10
11.359126
 20
7.516264
 30
0.0
 10
11.270790
 20
7.437871
 30
0.0
 10
11.204709
 20
7.365417
 30
0.0
 10
11.160862
 20
7.298664
 30
0.0
 10
11.139271
 20
7.237850
 30
0.0
 10
11.135626
 20
7.177986
 30
0.0
 10
11.145703
 20
7.114559
 30
0.0
 10
11.169588
 20
7.047568
 30
0.0
 10
11.207217
 20
6.977015
 30
0.0
 10
11.258590
 20
6.902660
 30
0.0
 10
11.323706
 20
6.824742
 30
0.0
 10
11.402566
 20
6.743260
 30
0.0
 10
11.495148
 20
6.657978
 30
0.0
 10
11.597550
 20
6.571983
 30
0.0
 10
11.705849
 20
6.488126
 30
0.0
 10
11.820022
 20
6.406645
 30
0.0
 10
11.940091
 20
6.327302
 30
0.0
 10
12.066057
 20
6.250096
 30
0.0
 10
12.197898
 20
6.175029
 30
0.0
 10
12.335635
 20
6.102099
 30
0.0
 10
12.479268
 20
6.031546
 30
0.0
 10
12.646122
 20
5.961942
 30
0.0
 10
12.832594
 20
5.892338
 30
0.0
 10
13.038706
 20
5.822735
 30
0.0
 10
13.264449
 20
5.753131
 30
0.0
 10
13.509822
 20
5.683527
 30
0.0
 10
13.774826
 20
5.613924
 30
0.0
 10
14.059462
 20
5.544320
 30
0.0
 10
14.363784
 20
5.475002
 30
0.0
  0
LWPOLYLINE
  5
102
100
AcDbEntity
  8
layer
 62
7
100
AcDbPolyline
 90
105
 70
0
 10
71.525781
 20
60.873568
 30
0.0
 10
71.011472
 20
60.655255
 30
0.0
 10
70.536426
 20
60.418175
 30
0.0
 10
70.100640
 20
60.162257
 30
0.0
 10
69.704117
 20
59.887478
 30
0.0
 10
69.346856
 20
59.593883
 30
0.0
 10
69.028856
 20
59.281427
 30
0.0
 10
68.750119
 20
58.950133
 30
0.0
 10
68.510643
 20
58.600001
 30
0.0
 10
68.304531
 20
58.219390
 30
0.0
 10
68.125906
 20
57.796708
 30
0.0
 10
67.974747
 20
57.332003
 30
0.0
 10
67.851075
 20
56.825275
 30
0.0
 10
67.754891
 20
56.276475
 30
0.0
 10
67.686194
 20
55.685628
 30
0.0
 10
67.644985
 20
55.052758
 30
0.0
 10
67.631262
 20
54.377840
 30
0.0
 10
67.631262
 20
49.192917
 30
0.0
 10
67.631262
 20
44.008017
 30
0.0
 10
67.631262
 20
38.823094
 30
0.0
 10
67.631262
 20
33.638171
 30
0.0
 10
67.631262
 20
28.453247
 30
0.0
 10
67.631262
 20
23.268348
 30
0.0
 10
67.631262
 20
18.083424
 30
0.0
 10
67.631262
 20
12.898501
 30
0.0
 10
67.646914
 20
11.915451
 30
0.0
 10
67.694020
 20
11.007801
 30
0.0
 10
67.772537
 20
10.175550
 30
0.0
 10
67.882465
 20
9.418676
 30
0.0
 10
68.023804
 20
8.737226
 30
0.0
 10
68.196554
 20
8.131152
 30
0.0
 10
68.400715
 20
7.600501
 30
0.0
 10
68.636281
 20
7.145227
 30
0.0
 10
68.855472
 20
6.809562
 30
0.0
 10
69.115234
 20
6.498555
 30
0.0
 10
69.415568
 20
6.212182
 30
0.0
 10
69.756471
 20
5.950492
 30
0.0
 10
70.137943
 20
5.713412
 30
0.0
 10
70.559987
 20
5.501038
 30
0.0
 10
71.022602
 20
5.313369
 30
0.0
 10
71.525788
 20
5.150169
 30
0.0
 10
71.525788
 20
4.512215
 30
0.0
 10
71.525788
 20
3.874237
 30
0.0
 10
71.525788
 20
3.236283
 30
0.0
 10
71.525788
 20
2.598329
 30
0.0
 10
71.525788
 20
1.960351
 30
0.0
 10
71.525788
 20
1.322397
 30
0.0
 10
71.525788
 20
0.684420
 30
0.0
 10
71.525788
 20
0.046466
 30
0.0
 10
69.248723
 20
0.350227
 30
0.0
 10
67.065885
 20
0.843914
 30
0.0
 10
64.977272
 20
1.527550
 30
0.0
 10
62.982883
 20
2.401135
 30
0.0
 10
61.082719
 20
3.464645
 30
0.0
 10
59.276779
 20
4.718104
 30
0.0
 10
57.565064
 20
6.161488
 30
0.0
 10
55.947573
 20
7.794821
 30
0.0
 10
54.033665
 20
10.156023
 30
0.0
 10
52.374945
 20
12.739054
 30
0.0
 10
50.971414
 20
15.543914
 30
0.0
 10
49.823070
 20
18.570626
 30
0.0
 10
48.929913
 20
21.819167
 30
0.0
 10
48.291945
 20
25.289561
 30
0.0
 10
47.909166
 20
28.981783
 30
0.0
 10
47.781571
 20
32.895859
 30
0.0
 10
47.815276
 20
34.889848
 30
0.0
 10
47.916370
 20
36.835281
 30
0.0
 10
48.084853
 20
38.732134
 30
0.0
 10
48.320738
 20
40.580407
 30
0.0
 10
48.624019
 20
42.380124
 30
0.0
 10
48.994695
 20
44.131261
 30
0.0
 10
49.432767
 20
45.833841
 30
0.0
 10
49.938236
 20
47.487866
 30
0.0
 10
50.509779
 20
49.086754
 30
0.0
 10
51.146107
 20
50.624020
 30
0.0
 10
51.847216
 20
52.099664
 30
0.0
 10
52.613108
 20
53.513686
 30
0.0
 10
53.443778
 20
54.866111
 30
0.0
 10
54.339229
 20
56.156914
 30
0.0
 10
55.299459
 20
57.386094
 30
0.0
 10
56.324465
 20
58.553654
 30
0.0
 10
57.138444
 20
59.397497
 30
0.0
 10
57.968128
 20
60.189125
 30
0.0
 10
58.813516
 20
60.928586
 30
0.0
 10
59.674610
 20
61.615857
 30
0.0
 10
60.551409
 20
62.250912
 30
0.0
 10
61.443911
 20
62.833801
 30
0.0
 10
62.352121
 20
63.364475
 30
0.0
 10
63.276035
 20
63.842959
 30
0.0
 10
64.220223
 20
64.270676
 30
0.0
 10
65.189276
 20
64.649078
 30
0.0
 10
66.183194
 20
64.978210
 30
0.0
 10
67.201980
 20
65.258050
 30
0.0
 10
68.245632
 20
65.488478
 30
0.0
 10
69.314150
 20
65.669733
 30
0.0
 10
70.407535
 20
65.801576
 30
0.0
 10
71.525788
 20
65.884245
 30
0.0
 10
71.525788
 20
65.257884
 30
0.0
 10
71.525788
 20
64.631522
 30
0.0
 10
71.525788
 20
64.005137
 30
0.0
 10
71.525788
 20
63.378776
 30
0.0
 10
71.525788
 20
62.752415
 30
0.0
 10
71.525788
 20
62.126053
 30
0.0
 10
71.525788
 20
61.499668
 30
0.0
 10
71.525781
 20
60.873568
 30
0.0
  0
LWPOLYLINE
  5
103
100
AcDbEntity
  8
layer
 62
7
100
AcDbPolyline
 90
113
 70
0
 10
74.959688
 20
60.873568
 30
0.0
 10
74.959688
 20
61.499930
 30
0.0
 10
74.959688
 20
62.126315
 30
0.0
 10
74.959688
 20
62.752676
 30
0.0
 10
74.959688
 20
63.379037
 30
0.0
 10
74.959688
 20
64.005399
 30
0.0
 10
74.959688
 20
64.631784
 30
0.0
 10
74.959688
 20
65.258145
 30
0.0
 10
74.959688
 20
65.884506
 30
0.0
 10
76.078249
 20
65.801837
 30
0.0
 10
77.172603
 20
65.669994
 30
0.0
 10
78.242750
 20
65.488740
 30
0.0
 10
79.288691
 20
65.258074
 30
0.0
 10
80.310424
 20
64.978234
 30
0.0
 10
81.307949
 20
64.649102
 30
0.0
 10
82.281269
 20
64.270676
 30
0.0
 10
83.230380
 20
63.842959
 30
0.0
 10
84.159184
 20
63.364475
 30
0.0
 10
85.071633
 20
62.833801
 30
0.0
 10
85.967729
 20
62.250912
 30
0.0
 10
86.847469
 20
61.615857
 30
0.0
 10
87.710855
 20
60.928586
 30
0.0
 10
88.557887
 20
60.189125
 30
0.0
 10
89.388565
 20
59.397497
 30
0.0
 10
90.202887
 20
58.553654
 30
0.0
 10
92.205119
 20
56.132992
 30
0.0
 10
93.940387
 20
53.487603
 30
0.0
 10
95.408691
 20
50.617487
 30
0.0
 10
96.610036
 20
47.522620
 30
0.0
 10
97.544419
 20
44.203026
 30
0.0
 10
98.211840
 20
40.658705
 30
0.0
 10
98.612302
 20
36.889657
 30
0.0
 10
98.745815
 20
32.895859
 30
0.0
 10
98.618198
 20
28.981783
 30
0.0
 10
98.235402
 20
25.289561
 30
0.0
 10
97.597423
 20
21.819167
 30
0.0
 10
96.704263
 20
18.570626
 30
0.0
 10
95.555920
 20
15.543914
 30
0.0
 10
94.152391
 20
12.739054
 30
0.0
 10
92.493682
 20
10.156023
 30
0.0
 10
90.579787
 20
7.794821
 30
0.0
 10
88.961623
 20
6.151345
 30
0.0
 10
87.247933
 20
4.700691
 30
0.0
 10
85.438713
 20
3.442885
 30
0.0
 10
83.533967
 20
2.377926
 30
0.0
 10
81.533690
 20
1.505814
 30
0.0
 10
79.437888
 20
0.826525
 30
0.0
 10
77.246555
 20
0.340060
 30
0.0
 10
74.959694
 20
0.046466
 30
0.0
 10
74.959694
 20
0.684420
 30
0.0
 10
74.959694
 20
1.322397
 30
0.0
 10
74.959694
 20
1.960351
 30
0.0
 10
74.959694
 20
2.598329
 30
0.0
 10
74.959694
 20
3.236283
 30
0.0
 10
74.959694
 20
3.874237
 30
0.0
 10
74.959694
 20
4.512215
 30
0.0
 10
74.959694
 20
5.150169
 30
0.0
 10
75.224359
 20
5.222386
 30
0.0
 10
75.473977
 20
5.299591
 30
0.0
 10
75.708550
 20
5.381785
 30
0.0
 10
75.928076
 20
5.469205
 30
0.0
 10
76.132559
 20
5.561614
 30
0.0
 10
76.321990
 20
5.659012
 30
0.0
 10
76.496369
 20
5.761636
 30
0.0
 10
76.655697
 20
5.869248
 30
0.0
 10
76.805848
 20
5.985650
 30
0.0
 10
76.952741
 20
6.114405
 30
0.0
 10
77.096352
 20
6.255275
 30
0.0
 10
77.236705
 20
6.408498
 30
0.0
 10
77.373799
 20
6.574074
 30
0.0
 10
77.507612
 20
6.752002
 30
0.0
 10
77.638166
 20
6.942284
 30
0.0
 10
77.765440
 20
7.144918
 30
0.0
 10
78.030431
 20
7.650934
 30
0.0
 10
78.260094
 20
8.217859
 30
0.0
 10
78.454414
 20
8.845670
 30
0.0
 10
78.613420
 20
9.534389
 30
0.0
 10
78.737091
 20
10.283994
 30
0.0
 10
78.825428
 20
11.094484
 30
0.0
 10
78.878430
 20
11.965884
 30
0.0
 10
78.896012
 20
12.898192
 30
0.0
 10
78.896012
 20
18.083116
 30
0.0
 10
78.896012
 20
23.268039
 30
0.0
 10
78.896012
 20
28.452938
 30
0.0
 10
78.896012
 20
33.637862
 30
0.0
 10
78.896012
 20
38.822785
 30
0.0
 10
78.896012
 20
44.007708
 30
0.0
 10
78.896012
 20
49.192608
 30
0.0
 10
78.896012
 20
54.377531
 30
0.0
 10
78.884219
 20
54.976336
 30
0.0
 10
78.848885
 20
55.543238
 30
0.0
 10
78.789986
 20
56.078235
 30
0.0
 10
78.707546
 20
56.581353
 30
0.0
 10
78.601542
 20
57.052591
 30
0.0
 10
78.471995
 20
57.491925
 30
0.0
 10
78.318885
 20
57.899356
 30
0.0
 10
78.142233
 20
58.274907
 30
0.0
 10
78.013651
 20
58.511986
 30
0.0
 10
77.879173
 20
58.736001
 30
0.0
 10
77.738821
 20
58.946950
 30
0.0
 10
77.592572
 20
59.144833
 30
0.0
 10
77.440448
 20
59.329651
 30
0.0
 10
77.282428
 20
59.501403
 30
0.0
 10
77.118533
 20
59.660090
 30
0.0
 10
76.948742
 20
59.805949
 30
0.0
 10
76.766494
 20
59.944443
 30
0.0
 10
76.565270
 20
60.081512
 30
0.0
 10
76.345084
 20
60.217156
 30
0.0
 10
76.105927
 20
60.351375
 30
0.0
 10
75.847795
 20
60.484168
 30
0.0
 10
75.570691
 20
60.615299
 30
0.0
 10
75.274617
 20
60.745004
 30
0.0
 10
74.959688
 20
60.873568
 30
0.0
  0
LWPOLYLINE
  5
104
100
AcDbEntity
  8
layer
 62
7
100
AcDbPolyline
 90
169
 70
0
 10
120.731181
 20
64.631784
 30
0.0
 10
122.840738
 20
64.631784
 30
0.0
 10
124.950295
 20
64.631784
 30
0.0
 10
127.059830
 20
64.631784
 30
0.0
 10
129.169387
 20
64.631784
 30
0.0
 10
131.278944
 20
64.631784
 30
0.0
 10
133.388480
 20
64.631784
 30
0.0
 10
135.498037
 20
64.631784
 30
0.0
 10
137.607594
 20
64.631784
 30
0.0
 10
139.062815
 20
57.817162
 30
0.0
 10
140.518036
 20
51.002540
 30
0.0
 10
141.973257
 20
44.187894
 30
0.0
 10
143.428478
 20
37.373272
 30
0.0
 10
144.883720
 20
30.558650
 30
0.0
 10
146.338941
 20
23.744028
 30
0.0
 10
147.794162
 20
16.929382
 30
0.0
 10
149.249383
 20
10.114760
 30
0.0
 10
149.334504
 20
9.760257
 30
0.0
 10
149.422197
 20
9.415897
 30
0.0
 10
149.512464
 20
9.081681
 30
0.0
 10
149.605303
 20
8.757608
 30
0.0
 10
149.700930
 20
8.443703
 30
0.0
 10
149.799130
 20
8.139965
 30
0.0
 10
149.899902
 20
7.846347
 30
0.0
 10
150.003248
 20
7.562897
 30
0.0
 10
150.111954
 20
7.347672
 30
0.0
 10
150.249390
 20
7.142424
 30
0.0
 10
150.415558
 20
6.947391
 30
0.0
 10
150.610457
 20
6.762574
 30
0.0
 10
150.834258
 20
6.587971
 30
0.0
 10
151.086832
 20
6.423345
 30
0.0
 10
151.368202
 20
6.268934
 30
0.0
 10
151.678368
 20
6.124738
 30
0.0
 10
151.940076
 20
5.997171
 30
0.0
 10
152.180859
 20
5.869604
 30
0.0
 10
152.400693
 20
5.742037
 30
0.0
 10
152.599665
 20
5.614470
 30
0.0
 10
152.777625
 20
5.486903
 30
0.0
 10
152.934788
 20
5.359336
 30
0.0
 10
153.070938
 20
5.231769
 30
0.0
 10
153.186076
 20
5.104202
 30
0.0
 10
153.284276
 20
4.970934
 30
0.0
 10
153.369397
 20
4.826025
 30
0.0
 10
153.441438
 20
4.669476
 30
0.0
 10
153.500401
 20
4.501287
 30
0.0
 10
153.546285
 20
4.321458
 30
0.0
 10
153.579089
 20
4.129989
 30
0.0
 10
153.598386
 20
3.926879
 30
0.0
 10
153.604819
 20
3.712367
 30
0.0
 10
153.553789
 20
3.146891
 30
0.0
 10
153.400700
 20
2.656839
 30
0.0
 10
153.145510
 20
2.242163
 30
0.0
 10
152.788260
 20
1.902863
 30
0.0
 10
152.328930
 20
1.638987
 30
0.0
 10
151.767519
 20
1.450606
 30
0.0
 10
151.104049
 20
1.337530
 30
0.0
 10
150.338499
 20
1.299758
 30
0.0
 10
147.726430
 20
1.299758
 30
0.0
 10
145.114339
 20
1.299758
 30
0.0
 10
142.502270
 20
1.299758
 30
0.0
 10
139.890201
 20
1.299758
 30
0.0
 10
137.278131
 20
1.299758
 30
0.0
 10
134.666062
 20
1.299758
 30
0.0
 10
132.053971
 20
1.299758
 30
0.0
 10
129.441902
 20
1.299758
 30
0.0
 10
129.135682
 20
1.309261
 30
0.0
 10
128.845157
 20
1.340855
 30
0.0
 10
128.570326
 20
1.393355
 30
0.0
 10
128.311212
 20
1.466997
 30
0.0
 10
128.067814
 20
1.561544
 30
0.0
 10
127.840111
 20
1.677233
 30
0.0
 10
127.628059
 20
1.813828
 30
0.0
 10
127.431874
 20
1.971564
 30
0.0
 10
127.255201
 20
2.146642
 30
0.0
 10
127.102112
 20
2.335498
 30
0.0
 10
126.972608
 20
2.538133
 30
0.0
 10
126.866690
 20
2.754545
 30
0.0
 10
126.784357
 20
2.984736
 30
0.0
 10
126.725394
 20
3.228705
 30
0.0
 10
126.690016
 20
3.486429
 30
0.0
 10
126.679296
 20
3.757930
 30
0.0
 10
126.683584
 20
3.982657
 30
0.0
 10
126.698593
 20
4.192894
 30
0.0
 10
126.724751
 20
4.388639
 30
0.0
 10
126.761415
 20
4.569893
 30
0.0
 10
126.808585
 20
4.736657
 30
0.0
 10
126.866261
 20
4.888930
 30
0.0
 10
126.934229
 20
5.026712
 30
0.0
 10
127.012703
 20
5.150003
 30
0.0
 10
127.109616
 20
5.269493
 30
0.0
 10
127.232688
 20
5.396347
 30
0.0
 10
127.381917
 20
5.530566
 30
0.0
 10
127.557304
 20
5.671911
 30
0.0
 10
127.758849
 20
5.820620
 30
0.0
 10
127.986574
 20
5.976457
 30
0.0
 10
128.240457
 20
6.139657
 30
0.0
 10
128.520519
 20
6.309984
 30
0.0
 10
128.722064
 20
6.427336
 30
0.0
 10
128.907957
 20
6.547776
 30
0.0
 10
129.077984
 20
6.671067
 30
0.0
 10
129.232359
 20
6.797209
 30
0.0
 10
129.371083
 20
6.926202
 30
0.0
 10
129.494154
 20
7.058045
 30
0.0
 10
129.601359
 20
7.192976
 30
0.0
 10
129.692912
 20
7.330758
 30
0.0
 10
129.771386
 20
7.474241
 30
0.0
 10
129.839354
 20
7.626514
 30
0.0
 10
129.896816
 20
7.787338
 30
0.0
 10
129.943986
 20
7.956953
 30
0.0
 10
129.980650
 20
8.135357
 30
0.0
 10
130.006808
 20
8.322312
 30
0.0
 10
130.021816
 20
8.518058
 30
0.0
 10
130.026105
 20
8.722593
 30
0.0
 10
130.024132
 20
8.916913
 30
0.0
 10
130.017700
 20
9.105294
 30
0.0
 10
130.006979
 20
9.287974
 30
0.0
 10
129.994115
 20
9.464952
 30
0.0
 10
129.976962
 20
9.635992
 30
0.0
 10
129.955307
 20
9.801330
 30
0.0
 10
129.929792
 20
9.960729
 30
0.0
 10
129.900418
 20
10.114427
 30
0.0
 10
129.732964
 20
10.955372
 30
0.0
 10
129.565509
 20
11.796341
 30
0.0
 10
129.398055
 20
12.637285
 30
0.0
 10
129.230601
 20
13.478230
 30
0.0
 10
129.063147
 20
14.319199
 30
0.0
 10
128.895693
 20
15.160144
 30
0.0
 10
128.728239
 20
16.001112
 30
0.0
 10
128.560785
 20
16.842057
 30
0.0
 10
127.100332
 20
16.842057
 30
0.0
 10
125.639858
 20
16.842057
 30
0.0
 10
124.179406
 20
16.842057
 30
0.0
 10
122.718953
 20
16.842057
 30
0.0
 10
121.258501
 20
16.842057
 30
0.0
 10
119.798027
 20
16.842057
 30
0.0
 10
118.337574
 20
16.842057
 30
0.0
 10
116.877121
 20
16.842057
 30
0.0
 10
117.018417
 20
17.532225
 30
0.0
 10
117.159713
 20
18.222370
 30
0.0
 10
117.301010
 20
18.912539
 30
0.0
 10
117.442306
 20
19.602707
 30
0.0
 10
117.583602
 20
20.292876
 30
0.0
 10
117.724898
 20
20.983021
 30
0.0
 10
117.866194
 20
21.673189
 30
0.0
 10
118.007490
 20
22.363358
 30
0.0
 10
119.180033
 20
22.363358
 30
0.0
 10
120.352598
 20
22.363358
 30
0.0
 10
121.525141
 20
22.363358
 30
0.0
 10
122.697705
 20
22.363358
 30
0.0
 10
123.870248
 20
22.363358
 30
0.0
 10
125.042813
 20
22.363358
 30
0.0
 10
126.215356
 20
22.363358
 30
0.0
 10
127.387920
 20
22.363358
 30
0.0
 10
126.424748
 20
27.078493
 30
0.0
 10
125.461577
 20
31.793627
 30
0.0
 10
124.498405
 20
36.508785
 30
0.0
 10
123.535233
 20
41.223920
 30
0.0
 10
122.572082
 20
45.939055
 30
0.0
 10
121.608911
 20
50.654189
 30
0.0
 10
120.645739
 20
55.369347
 30
0.0
 10
119.682567
 20
60.084482
 30
0.0
 10
119.813357
 20
60.652856
 30
0.0
 10
119.944147
 20
61.221230
 30
0.0
 10
120.074937
 20
61.789604
 30
0.0
 10
120.205727
 20
62.357955
 30
0.0
 10
120.336517
 20
62.926329
 30
0.0
 10
120.467307
 20
63.494703
 30
0.0
 10
120.598097
 20
64.063077
 30
0.0
 10
120.731181
 20
64.631784
 30
0.0
  0
LWPOLYLINE
  5
105
100
AcDbEntity
  8
layer
 62
7
100
AcDbPolyline
 90
121
 70
0
 10
117.841687
 20
52.846822
 30
0.0
 10
118.108649
 20
51.646290
 30
0.0
 10
118.375610
 20
50.445758
 30
0.0
 10
118.642572
 20
49.245226
 30
0.0
 10
118.909555
 20
48.044695
 30
0.0
 10
119.176517
 20
46.844139
 30
0.0
 10
119.443478
 20
45.643607
 30
0.0
 10
119.710440
 20
44.443076
 30
0.0
 10
119.977402
 20
43.242544
 30
0.0
 10
119.050873
 20
39.495945
 30
0.0
 10
118.124343
 20
35.749346
 30
0.0
 10
117.197814
 20
32.002747
 30
0.0
 10
116.271285
 20
28.256172
 30
0.0
 10
115.344777
 20
24.509573
 30
0.0
 10
114.418248
 20
20.762974
 30
0.0
 10
113.491719
 20
17.016375
 30
0.0
 10
112.565189
 20
13.269776
 30
0.0
 10
112.486715
 20
12.947889
 30
0.0
 10
112.418748
 20
12.631798
 30
0.0
 10
112.361071
 20
12.321527
 30
0.0
 10
112.313901
 20
12.017029
 30
0.0
 10
112.277237
 20
11.718351
 30
0.0
 10
112.251079
 20
11.425470
 30
0.0
 10
112.236070
 20
11.138385
 30
0.0
 10
112.231782
 20
10.857119
 30
0.0
 10
112.270376
 20
10.152460
 30
0.0
 10
112.386157
 20
9.499991
 30
0.0
 10
112.579126
 20
8.899714
 30
0.0
 10
112.849368
 20
8.351627
 30
0.0
 10
113.196819
 20
7.855754
 30
0.0
 10
113.621479
 20
7.412097
 30
0.0
 10
114.123349
 20
7.020606
 30
0.0
 10
114.702427
 20
6.681330
 30
0.0
 10
114.885747
 20
6.588446
 30
0.0
 10
115.068853
 20
6.495562
 30
0.0
 10
115.251959
 20
6.402678
 30
0.0
 10
115.435279
 20
6.309794
 30
0.0
 10
115.618385
 20
6.216910
 30
0.0
 10
115.801706
 20
6.124026
 30
0.0
 10
115.984812
 20
6.031142
 30
0.0
 10
116.167918
 20
5.938258
 30
0.0
 10
116.491805
 20
5.749877
 30
0.0
 10
116.772511
 20
5.532276
 30
0.0
 10
117.010013
 20
5.285789
 30
0.0
 10
117.204268
 20
5.010320
 30
0.0
 10
117.355427
 20
4.705822
 30
0.0
 10
117.463275
 20
4.372343
 30
0.0
 10
117.528027
 20
4.009881
 30
0.0
 10
117.549682
 20
3.618390
 30
0.0
 10
117.501869
 20
3.074675
 30
0.0
 10
117.358643
 20
2.603460
 30
0.0
 10
117.119812
 20
2.204724
 30
0.0
 10
116.785461
 20
1.878490
 30
0.0
 10
116.355569
 20
1.624757
 30
0.0
 10
115.830137
 20
1.443503
 30
0.0
 10
115.209184
 20
1.334703
 30
0.0
 10
114.492712
 20
1.298357
 30
0.0
 10
113.163114
 20
1.298357
 30
0.0
 10
111.833516
 20
1.298357
 30
0.0
 10
110.503939
 20
1.298357
 30
0.0
 10
109.174341
 20
1.298357
 30
0.0
 10
107.844745
 20
1.298357
 30
0.0
 10
106.515151
 20
1.298357
 30
0.0
 10
105.185559
 20
1.298357
 30
0.0
 10
103.855965
 20
1.298357
 30
0.0
 10
103.478745
 20
1.310235
 30
0.0
 10
103.121811
 20
1.343967
 30
0.0
 10
102.785159
 20
1.400030
 30
0.0
 10
102.468791
 20
1.478661
 30
0.0
 10
102.172708
 20
1.579860
 30
0.0
 10
101.896909
 20
1.703388
 30
0.0
 10
101.641392
 20
1.849485
 30
0.0
 10
101.406161
 20
2.018149
 30
0.0
 10
101.195139
 20
2.206292
 30
0.0
 10
101.012247
 20
2.411065
 30
0.0
 10
100.857508
 20
2.632466
 30
0.0
 10
100.730899
 20
2.870615
 30
0.0
 10
100.632420
 20
3.125440
 30
0.0
 10
100.562072
 20
3.396942
 30
0.0
 10
100.519876
 20
3.685096
 30
0.0
 10
100.505725
 20
3.989950
 30
0.0
 10
100.534521
 20
4.319083
 30
0.0
 10
100.620885
 20
4.633701
 30
0.0
 10
100.764840
 20
4.933851
 30
0.0
 10
100.966385
 20
5.219488
 30
0.0
 10
101.225499
 20
5.490609
 30
0.0
 10
101.542195
 20
5.747240
 30
0.0
 10
101.916473
 20
5.989380
 30
0.0
 10
102.348331
 20
6.216957
 30
0.0
 10
102.763500
 20
6.423155
 30
0.0
 10
103.150531
 20
6.624364
 30
0.0
 10
103.509427
 20
6.820585
 30
0.0
 10
103.840189
 20
7.011579
 30
0.0
 10
104.142815
 20
7.197584
 30
0.0
 10
104.417307
 20
7.378364
 30
0.0
 10
104.663664
 20
7.554154
 30
0.0
 10
104.881884
 20
7.724957
 30
0.0
 10
105.085058
 20
7.900747
 30
0.0
 10
105.286261
 20
8.091741
 30
0.0
 10
105.485490
 20
8.297939
 30
0.0
 10
105.682769
 20
8.519341
 30
0.0
 10
105.878096
 20
8.755945
 30
0.0
 10
106.071451
 20
9.007872
 30
0.0
 10
106.262833
 20
9.275003
 30
0.0
 10
106.452264
 20
9.557385
 30
0.0
 10
106.738857
 20
10.052521
 30
0.0
 10
107.012365
 20
10.586829
 30
0.0
 10
107.272787
 20
11.160263
 30
0.0
 10
107.520122
 20
11.772870
 30
0.0
 10
107.754373
 20
12.424602
 30
0.0
 10
107.975539
 20
13.115484
 30
0.0
 10
108.183624
 20
13.845538
 30
0.0
 10
108.378522
 20
14.614717
 30
0.0
 10
109.561550
 20
19.393659
 30
0.0
 10
110.744556
 20
24.172601
 30
0.0
 10
111.927584
 20
28.951543
 30
0.0
 10
113.110612
 20
33.730484
 30
0.0
 10
114.293639
 20
38.509403
 30
0.0
 10
115.476646
 20
43.288344
 30
0.0
 10
116.659673
 20
48.067286
 30
0.0
 10
117.841687
 20
52.846822
 30
0.0
  0
LWPOLYLINE
  5
106
100
AcDbEntity
  8
layer
 62
7
100
AcDbPolyline
 90
145
 70
0
 10
188.320537
 20
64.631784
 30
0.0
 10
188.320537
 20
57.817162
 30
0.0
 10
188.320537
 20
51.002540
 30
0.0
 10
188.320537
 20
44.187894
 30
0.0
 10
188.320537
 20
37.373272
 30
0.0
 10
188.320537
 20
30.558650
 30
0.0
 10
188.320537
 20
23.744028
 30
0.0
 10
188.320537
 20
16.929382
 30
0.0
 10
188.320537
 20
10.114760
 30
0.0
 10
188.331257
 20
9.678324
 30
0.0
 10
188.360632
 20
9.273792
 30
0.0
 10
188.409731
 20
8.901163
 30
0.0
 10
188.478343
 20
8.560438
 30
0.0
 10
188.566679
 20
8.251592
 30
0.0
 10
188.674742
 20
7.974674
 30
0.0
 10
188.802316
 20
7.729636
 30
0.0
 10
188.949615
 20
7.516550
 30
0.0
 10
189.032806
 20
7.406086
 30
0.0
 10
189.114711
 20
7.306313
 30
0.0
 10
189.195115
 20
7.217468
 30
0.0
 10
189.274232
 20
7.139550
 30
0.0
 10
189.352063
 20
7.072559
 30
0.0
 10
189.428607
 20
7.016496
 30
0.0
 10
189.503865
 20
6.971123
 30
0.0
 10
189.577836
 20
6.936678
 30
0.0
 10
189.671962
 20
6.902232
 30
0.0
 10
189.808112
 20
6.856859
 30
0.0
 10
189.986072
 20
6.800796
 30
0.0
 10
190.205928
 20
6.733806
 30
0.0
 10
190.467658
 20
6.655888
 30
0.0
 10
190.771284
 20
6.567042
 30
0.0
 10
191.116784
 20
6.467269
 30
0.0
 10
191.504158
 20
6.356806
 30
0.0
 10
191.975260
 20
6.205246
 30
0.0
 10
192.383539
 20
6.005937
 30
0.0
 10
192.729018
 20
5.758714
 30
0.0
 10
193.011695
 20
5.463670
 30
0.0
 10
193.231551
 20
5.120760
 30
0.0
 10
193.388499
 20
4.730005
 30
0.0
 10
193.482625
 20
4.291408
 30
0.0
 10
193.514143
 20
3.804966
 30
0.0
 10
193.496991
 20
3.510635
 30
0.0
 10
193.445961
 20
3.230796
 30
0.0
 10
193.360840
 20
2.965447
 30
0.0
 10
193.241843
 20
2.714612
 30
0.0
 10
193.088754
 20
2.478245
 30
0.0
 10
192.901575
 20
2.256369
 30
0.0
 10
192.680411
 20
2.048983
 30
0.0
 10
192.425242
 20
1.856089
 30
0.0
 10
192.209310
 20
1.725671
 30
0.0
 10
191.959351
 20
1.612595
 30
0.0
 10
191.675365
 20
1.516860
 30
0.0
 10
191.357352
 20
1.438467
 30
0.0
 10
191.005334
 20
1.377653
 30
0.0
 10
190.619289
 20
1.334180
 30
0.0
 10
190.199217
 20
1.308049
 30
0.0
 10
189.745119
 20
1.298547
 30
0.0
 10
189.572304
 20
1.298547
 30
0.0
 10
189.399490
 20
1.298547
 30
0.0
 10
189.226676
 20
1.298547
 30
0.0
 10
189.053861
 20
1.298547
 30
0.0
 10
188.881047
 20
1.298547
 30
0.0
 10
188.708233
 20
1.298547
 30
0.0
 10
188.535418
 20
1.298547
 30
0.0
 10
188.362604
 20
1.298547
 30
0.0
 10
186.027960
 20
1.298547
 30
0.0
 10
183.693315
 20
1.298547
 30
0.0
 10
181.358692
 20
1.298547
 30
0.0
 10
179.024048
 20
1.298547
 30
0.0
 10
176.689404
 20
1.298547
 30
0.0
 10
174.354759
 20
1.298547
 30
0.0
 10
172.020136
 20
1.298547
 30
0.0
 10
169.685492
 20
1.298547
 30
0.0
 10
169.512678
 20
1.298547
 30
0.0
 10
169.339863
 20
1.298547
 30
0.0
 10
169.167049
 20
1.298547
 30
0.0
 10
168.994235
 20
1.298547
 30
0.0
 10
168.821420
 20
1.298547
 30
0.0
 10
168.648606
 20
1.298547
 30
0.0
 10
168.475792
 20
1.298547
 30
0.0
 10
168.302977
 20
1.298547
 30
0.0
 10
167.856405
 20
1.308049
 30
0.0
 10
167.437962
 20
1.337506
 30
0.0
 10
167.047651
 20
1.386442
 30
0.0
 10
166.685470
 20
1.454858
 30
0.0
 10
166.351440
 20
1.542991
 30
0.0
 10
166.045563
 20
1.650603
 30
0.0
 10
165.767795
 20
1.777933
 30
0.0
 10
165.518180
 20
1.924742
 30
0.0
 10
165.297337
 20
2.091030
 30
0.0
 10
165.105869
 20
2.277036
 30
0.0
 10
164.943990
 20
2.482521
 30
0.0
 10
164.811485
 20
2.707723
 30
0.0
 10
164.708354
 20
2.952405
 30
0.0
 10
164.634811
 20
3.216637
 30
0.0
 10
164.590643
 20
3.500468
 30
0.0
 10
164.575634
 20
3.803873
 30
0.0
 10
164.607152
 20
4.290315
 30
0.0
 10
164.701278
 20
4.728913
 30
0.0
 10
164.858440
 20
5.119667
 30
0.0
 10
165.078275
 20
5.462578
 30
0.0
 10
165.360953
 20
5.757621
 30
0.0
 10
165.706431
 20
6.004844
 30
0.0
 10
166.114732
 20
6.204153
 30
0.0
 10
166.585855
 20
6.355713
 30
0.0
 10
166.973208
 20
6.466176
 30
0.0
 10
167.318708
 20
6.565949
 30
0.0
 10
167.622312
 20
6.654795
 30
0.0
 10
167.884042
 20
6.732713
 30
0.0
 10
168.103898
 20
6.799703
 30
0.0
 10
168.281858
 20
6.856004
 30
0.0
 10
168.418008
 20
6.901377
 30
0.0
 10
168.512134
 20
6.935823
 30
0.0
 10
168.585462
 20
6.970268
 30
0.0
 10
168.658790
 20
7.015641
 30
0.0
 10
168.732119
 20
7.071704
 30
0.0
 10
168.805447
 20
7.138695
 30
0.0
 10
168.878775
 20
7.216613
 30
0.0
 10
168.952103
 20
7.305458
 30
0.0
 10
169.025431
 20
7.405231
 30
0.0
 10
169.098759
 20
7.515694
 30
0.0
 10
169.246059
 20
7.728781
 30
0.0
 10
169.373633
 20
7.973819
 30
0.0
 10
169.481695
 20
8.250737
 30
0.0
 10
169.570032
 20
8.559582
 30
0.0
 10
169.638643
 20
8.900308
 30
0.0
 10
169.687743
 20
9.272936
 30
0.0
 10
169.717117
 20
9.677469
 30
0.0
 10
169.727838
 20
10.113905
 30
0.0
 10
169.727838
 20
16.928527
 30
0.0
 10
169.727838
 20
23.743173
 30
0.0
 10
169.727838
 20
30.557795
 30
0.0
 10
169.727838
 20
37.372417
 30
0.0
 10
169.727838
 20
44.187039
 30
0.0
 10
169.727838
 20
51.001685
 30
0.0
 10
169.727838
 20
57.816307
 30
0.0
 10
169.727838
 20
64.630929
 30
0.0
 10
172.051998
 20
64.630929
 30
0.0
 10
174.376179
 20
64.630929
 30
0.0
 10
176.700339
 20
64.630929
 30
0.0
 10
179.024498
 20
64.630929
 30
0.0
 10
181.348679
 20
64.630929
 30
0.0
 10
183.672839
 20
64.630929
 30
0.0
 10
185.997020
 20
64.630929
 30
0.0
 10
188.320537
 20
64.631784
 30
0.0
  0
LWPOLYLINE
  5
107
100
AcDbEntity
  8
layer
 62
7
100
AcDbPolyline
 90
81
 70
0
 10
202.809946
 20
64.631784
 30
0.0
 10
202.809946
 20
62.259702
 30
0.0
 10
202.809946
 20
59.887644
 30
0.0
 10
202.809946
 20
57.515562
 30
0.0
 10
202.809946
 20
55.143480
 30
0.0
 10
202.809946
 20
52.771422
 30
0.0
 10
202.809946
 20
50.399340
 30
0.0
 10
202.809946
 20
48.027282
 30
0.0
 10
202.809946
 20
45.655200
 30
0.0
 10
202.799226
 20
45.326780
 30
0.0
 10
202.766850
 20
45.014324
 30
0.0
 10
202.712819
 20
44.717808
 30
0.0
 10
202.637346
 20
44.437232
 30
0.0
 10
202.540219
 20
44.172643
 30
0.0
 10
202.421436
 20
43.923970
 30
0.0
 10
202.280997
 20
43.691404
 30
0.0
 10
202.119118
 20
43.474754
 30
0.0
 10
201.940085
 20
43.279008
 30
0.0
 10
201.748618
 20
43.109394
 30
0.0
 10
201.544714
 20
42.965911
 30
0.0
 10
201.328460
 20
42.848559
 30
0.0
 10
201.099770
 20
42.757100
 30
0.0
 10
200.858667
 20
42.691772
 30
0.0
 10
200.605127
 20
42.652576
 30
0.0
 10
200.339152
 20
42.640698
 30
0.0
 10
200.082975
 20
42.652576
 30
0.0
 10
199.837904
 20
42.688447
 30
0.0
 10
199.603983
 20
42.748311
 30
0.0
 10
199.381190
 20
42.832167
 30
0.0
 10
199.169567
 20
42.939780
 30
0.0
 10
198.969094
 20
43.071385
 30
0.0
 10
198.779770
 20
43.226984
 30
0.0
 10
198.601381
 20
43.406338
 30
0.0
 10
198.436071
 20
43.606834
 30
0.0
 10
198.285984
 20
43.825385
 30
0.0
 10
198.150906
 20
44.061990
 30
0.0
 10
198.030837
 20
44.316815
 30
0.0
 10
197.925776
 20
44.589742
 30
0.0
 10
197.835724
 20
44.880842
 30
0.0
 10
197.760895
 20
45.190044
 30
0.0
 10
197.701074
 20
45.517371
 30
0.0
 10
197.648758
 20
45.871161
 30
0.0
 10
197.596442
 20
46.224928
 30
0.0
 10
197.544126
 20
46.578719
 30
0.0
 10
197.491810
 20
46.932510
 30
0.0
 10
197.439494
 20
47.286277
 30
0.0
 10
197.387178
 20
47.640067
 30
0.0
 10
197.334862
 20
47.993834
 30
0.0
 10
197.282546
 20
48.347625
 30
0.0
 10
197.107159
 20
49.408213
 30
0.0
 10
196.895108
 20
50.432574
 30
0.0
 10
196.646457
 20
51.420684
 30
0.0
 10
196.361163
 20
52.372567
 30
0.0
 10
196.039227
 20
53.288175
 30
0.0
 10
195.680669
 20
54.167580
 30
0.0
 10
195.285469
 20
55.010711
 30
0.0
 10
194.853626
 20
55.817614
 30
0.0
 10
194.558512
 20
56.293888
 30
0.0
 10
194.238527
 20
56.748426
 30
0.0
 10
193.893692
 20
57.181227
 30
0.0
 10
193.523985
 20
57.592268
 30
0.0
 10
193.129428
 20
57.981574
 30
0.0
 10
192.710021
 20
58.349142
 30
0.0
 10
192.265742
 20
58.694951
 30
0.0
 10
191.796592
 20
59.019024
 30
0.0
 10
191.796592
 20
59.720785
 30
0.0
 10
191.796592
 20
60.422546
 30
0.0
 10
191.796592
 20
61.124308
 30
0.0
 10
191.796592
 20
61.826069
 30
0.0
 10
191.796592
 20
62.527854
 30
0.0
 10
191.796592
 20
63.229615
 30
0.0
 10
191.796592
 20
63.931377
 30
0.0
 10
191.796592
 20
64.633138
 30
0.0
 10
193.173296
 20
64.633138
 30
0.0
 10
194.550000
 20
64.633138
 30
0.0
 10
195.926704
 20
64.633138
 30
0.0
 10
197.303408
 20
64.633138
 30
0.0
 10
198.680113
 20
64.633138
 30
0.0
 10
200.056817
 20
64.633138
 30
0.0
 10
201.433521
 20
64.633138
 30
0.0
 10
202.809946
 20
64.631784
 30
0.0
  0
LWPOLYLINE
  5
108
100
AcDbEntity
  8
layer
 62
7
100
AcDbPolyline
 90
81
 70
0
 10
155.321534
 20
64.631784
 30
0.0
 10
156.698238
 20
64.631784
 30
0.0
 10
158.074942
 20
64.631784
 30
0.0
 10
159.451646
 20
64.631784
 30
0.0
 10
160.828329
 20
64.631784
 30
0.0
 10
162.205033
 20
64.631784
 30
0.0
 10
163.581737
 20
64.631784
 30
0.0
 10
164.958441
 20
64.631784
 30
0.0
 10
166.335145
 20
64.631784
 30
0.0
 10
166.335145
 20
63.930023
 30
0.0
 10
166.335145
 20
63.228261
 30
0.0
 10
166.335145
 20
62.526500
 30
0.0
 10
166.335145
 20
61.824715
 30
0.0
 10
166.335145
 20
61.122954
 30
0.0
 10
166.335145
 20
60.421192
 30
0.0
 10
166.335145
 20
59.719431
 30
0.0
 10
166.335145
 20
59.017670
 30
0.0
 10
165.856840
 20
58.693597
 30
0.0
 10
165.406000
 20
58.347788
 30
0.0
 10
164.982648
 20
57.980220
 30
0.0
 10
164.586783
 20
57.590914
 30
0.0
 10
164.218406
 20
57.179873
 30
0.0
 10
163.877494
 20
56.747071
 30
0.0
 10
163.564070
 20
56.292534
 30
0.0
 10
163.278133
 20
55.816260
 30
0.0
 10
162.846268
 20
55.009356
 30
0.0
 10
162.451068
 20
54.166226
 30
0.0
 10
162.092489
 20
53.286821
 30
0.0
 10
161.770553
 20
52.371213
 30
0.0
 10
161.485281
 20
51.419330
 30
0.0
 10
161.236630
 20
50.431220
 30
0.0
 10
161.024578
 20
49.406859
 30
0.0
 10
160.849191
 20
48.346271
 30
0.0
 10
160.796875
 20
47.992480
 30
0.0
 10
160.744559
 20
47.638713
 30
0.0
 10
160.692243
 20
47.284922
 30
0.0
 10
160.639927
 20
46.931156
 30
0.0
 10
160.587611
 20
46.577365
 30
0.0
 10
160.535295
 20
46.223574
 30
0.0
 10
160.482979
 20
45.869807
 30
0.0
 10
160.430663
 20
45.516017
 30
0.0
 10
160.370843
 20
45.188689
 30
0.0
 10
160.296014
 20
44.879488
 30
0.0
 10
160.205961
 20
44.588388
 30
0.0
 10
160.100901
 20
44.315461
 30
0.0
 10
159.980831
 20
44.060636
 30
0.0
 10
159.845753
 20
43.824031
 30
0.0
 10
159.695666
 20
43.605480
 30
0.0
 10
159.530356
 20
43.404984
 30
0.0
 10
159.351967
 20
43.225630
 30
0.0
 10
159.162429
 20
43.070031
 30
0.0
 10
158.961956
 20
42.938426
 30
0.0
 10
158.750333
 20
42.830813
 30
0.0
 10
158.527518
 20
42.746956
 30
0.0
 10
158.293597
 20
42.687093
 30
0.0
 10
158.048570
 20
42.651222
 30
0.0
 10
157.792393
 20
42.639344
 30
0.0
 10
157.526417
 20
42.651222
 30
0.0
 10
157.272856
 20
42.690418
 30
0.0
 10
157.031731
 20
42.755746
 30
0.0
 10
156.803041
 20
42.847205
 30
0.0
 10
156.586788
 20
42.964557
 30
0.0
 10
156.382884
 20
43.108040
 30
0.0
 10
156.191416
 20
43.277654
 30
0.0
 10
156.012384
 20
43.473400
 30
0.0
 10
155.850504
 20
43.690050
 30
0.0
 10
155.710066
 20
43.922616
 30
0.0
 10
155.591283
 20
44.171289
 30
0.0
 10
155.494155
 20
44.435878
 30
0.0
 10
155.418683
 20
44.716454
 30
0.0
 10
155.364652
 20
45.012970
 30
0.0
 10
155.332276
 20
45.325426
 30
0.0
 10
155.321555
 20
45.653846
 30
0.0
 10
155.321555
 20
48.025928
 30
0.0
 10
155.321555
 20
50.397986
 30
0.0
 10
155.321555
 20
52.770068
 30
0.0
 10
155.321555
 20
55.142126
 30
0.0
 10
155.321555
 20
57.514208
 30
0.0
 10
155.321555
 20
59.886290
 30
0.0
 10
155.321555
 20
62.258348
 30
0.0
 10
155.321534
 20
64.631784
 30
0.0
  0
LWPOLYLINE
  5
109
100
AcDbEntity
  8
layer
 62
7
100
AcDbPolyline
 90
201
 70
0
 10
252.266598
 20
1.299236
 30
0.0
 10
249.937185
 20
1.299236
 30
0.0
 10
247.607794
 20
1.299236
 30
0.0
 10
245.278381
 20
1.299236
 30
0.0
 10
242.948968
 20
1.299236
 30
0.0
 10
240.619577
 20
1.299236
 30
0.0
 10
238.290164
 20
1.299236
 30
0.0
 10
235.960773
 20
1.299236
 30
0.0
 10
233.631360
 20
1.299236
 30
0.0
 10
233.495210
 20
1.299236
 30
0.0
 10
233.359060
 20
1.299236
 30
0.0
 10
233.222909
 20
1.299236
 30
0.0
 10
233.086759
 20
1.299236
 30
0.0
 10
232.950609
 20
1.299236
 30
0.0
 10
232.814459
 20
1.299236
 30
0.0
 10
232.678308
 20
1.299236
 30
0.0
 10
232.542158
 20
1.299236
 30
0.0
 10
232.176053
 20
1.308738
 30
0.0
 10
231.831561
 20
1.338195
 30
0.0
 10
231.508638
 20
1.387131
 30
0.0
 10
231.207328
 20
1.455547
 30
0.0
 10
230.927609
 20
1.543680
 30
0.0
 10
230.669481
 20
1.651292
 30
0.0
 10
230.432944
 20
1.778622
 30
0.0
 10
230.217998
 20
1.925431
 30
0.0
 10
230.026530
 20
2.090294
 30
0.0
 10
229.860577
 20
2.271786
 30
0.0
 10
229.720139
 20
2.470145
 30
0.0
 10
229.605215
 20
2.685132
 30
0.0
 10
229.516021
 20
2.916748
 30
0.0
 10
229.452126
 20
3.165040
 30
0.0
 10
229.413747
 20
3.430009
 30
0.0
 10
229.400882
 20
3.711655
 30
0.0
 10
229.427040
 20
4.166929
 30
0.0
 10
229.505514
 20
4.581605
 30
0.0
 10
229.636304
 20
4.955706
 30
0.0
 10
229.819410
 20
5.289186
 30
0.0
 10
230.054961
 20
5.582068
 30
0.0
 10
230.342871
 20
5.834351
 30
0.0
 10
230.683118
 20
6.046013
 30
0.0
 10
231.075723
 20
6.217052
 30
0.0
 10
231.403213
 20
6.338443
 30
0.0
 10
231.694703
 20
6.447481
 30
0.0
 10
231.950215
 20
6.544166
 30
0.0
 10
232.169750
 20
6.628735
 30
0.0
 10
232.353284
 20
6.700952
 30
0.0
 10
232.500798
 20
6.760816
 30
0.0
 10
232.612292
 20
6.808327
 30
0.0
 10
232.687764
 20
6.843485
 30
0.0
 10
232.745654
 20
6.877218
 30
0.0
 10
232.804188
 20
6.920453
 30
0.0
 10
232.863365
 20
6.972952
 30
0.0
 10
232.923186
 20
7.034954
 30
0.0
 10
232.983649
 20
7.106458
 30
0.0
 10
233.044756
 20
7.187227
 30
0.0
 10
233.106506
 20
7.277498
 30
0.0
 10
233.168899
 20
7.377271
 30
0.0
 10
233.286610
 20
7.576580
 30
0.0
 10
233.388670
 20
7.803445
 30
0.0
 10
233.475077
 20
8.057914
 30
0.0
 10
233.545832
 20
8.339915
 30
0.0
 10
233.600721
 20
8.649473
 30
0.0
 10
233.639958
 20
8.986587
 30
0.0
 10
233.663543
 20
9.351258
 30
0.0
 10
233.672119
 20
9.743462
 30
0.0
 10
233.672119
 20
15.548950
 30
0.0
 10
233.672119
 20
21.354438
 30
0.0
 10
233.672119
 20
27.159903
 30
0.0
 10
233.672119
 20
32.965391
 30
0.0
 10
233.672119
 20
38.770879
 30
0.0
 10
233.672119
 20
44.576368
 30
0.0
 10
233.672119
 20
50.381832
 30
0.0
 10
233.672119
 20
56.187321
 30
0.0
 10
233.663543
 20
56.579500
 30
0.0
 10
233.639958
 20
56.944147
 30
0.0
 10
233.600721
 20
57.281238
 30
0.0
 10
233.545832
 20
57.590796
 30
0.0
 10
233.475077
 20
57.872797
 30
0.0
 10
233.388670
 20
58.127266
 30
0.0
 10
233.286610
 20
58.354131
 30
0.0
 10
233.168899
 20
58.553440
 30
0.0
 10
233.106506
 20
58.653213
 30
0.0
 10
233.044756
 20
58.743484
 30
0.0
 10
232.983649
 20
58.824253
 30
0.0
 10
232.923186
 20
58.895757
 30
0.0
 10
232.863365
 20
58.957758
 30
0.0
 10
232.804188
 20
59.010258
 30
0.0
 10
232.745654
 20
59.053493
 30
0.0
 10
232.687764
 20
59.087226
 30
0.0
 10
232.612292
 20
59.122384
 30
0.0
 10
232.500798
 20
59.169895
 30
0.0
 10
232.353284
 20
59.229759
 30
0.0
 10
232.169750
 20
59.301976
 30
0.0
 10
231.950237
 20
59.386545
 30
0.0
 10
231.694703
 20
59.483468
 30
0.0
 10
231.403213
 20
59.592505
 30
0.0
 10
231.075723
 20
59.713896
 30
0.0
 10
230.683118
 20
59.884936
 30
0.0
 10
230.342871
 20
60.096597
 30
0.0
 10
230.054961
 20
60.348881
 30
0.0
 10
229.819410
 20
60.641762
 30
0.0
 10
229.636304
 20
60.975242
 30
0.0
 10
229.505514
 20
61.349320
 30
0.0
 10
229.427040
 20
61.764020
 30
0.0
 10
229.400882
 20
62.219318
 30
0.0
 10
229.413747
 20
62.500939
 30
0.0
 10
229.452126
 20
62.765908
 30
0.0
 10
229.516021
 20
63.014200
 30
0.0
 10
229.605215
 20
63.245817
 30
0.0
 10
229.720139
 20
63.460804
 30
0.0
 10
229.860577
 20
63.659162
 30
0.0
 10
230.026530
 20
63.840892
 30
0.0
 10
230.217998
 20
64.005755
 30
0.0
 10
230.432944
 20
64.152564
 30
0.0
 10
230.669481
 20
64.279894
 30
0.0
 10
230.927609
 20
64.387506
 30
0.0
 10
231.207328
 20
64.475639
 30
0.0
 10
231.508638
 20
64.544055
 30
0.0
 10
231.831561
 20
64.592991
 30
0.0
 10
232.176053
 20
64.622448
 30
0.0
 10
232.542158
 20
64.631950
 30
0.0
 10
232.678308
 20
64.631950
 30
0.0
 10
232.814459
 20
64.631950
 30
0.0
 10
232.950609
 20
64.631950
 30
0.0
 10
233.086759
 20
64.631950
 30
0.0
 10
233.222909
 20
64.631950
 30
0.0
 10
233.359060
 20
64.631950
 30
0.0
 10
233.495210
 20
64.631950
 30
0.0
 10
233.631360
 20
64.631950
 30
0.0
 10
235.966004
 20
64.631950
 30
0.0
 10
238.300627
 20
64.631950
 30
0.0
 10
240.635272
 20
64.631950
 30
0.0
 10
242.969916
 20
64.631950
 30
0.0
 10
245.304561
 20
64.631950
 30
0.0
 10
247.639183
 20
64.631950
 30
0.0
 10
249.973828
 20
64.631950
 30
0.0
 10
252.308472
 20
64.631950
 30
0.0
 10
252.486432
 20
64.631950
 30
0.0
 10
252.664393
 20
64.631950
 30
0.0
 10
252.842353
 20
64.631950
 30
0.0
 10
253.020313
 20
64.631950
 30
0.0
 10
253.198273
 20
64.631950
 30
0.0
 10
253.376233
 20
64.631950
 30
0.0
 10
253.554193
 20
64.631950
 30
0.0
 10
253.732154
 20
64.631950
 30
0.0
 10
254.176432
 20
64.622448
 30
0.0
 10
254.588013
 20
64.596317
 30
0.0
 10
254.966854
 20
64.552844
 30
0.0
 10
255.312997
 20
64.492030
 30
0.0
 10
255.626422
 20
64.413637
 30
0.0
 10
255.907127
 20
64.317902
 30
0.0
 10
256.155113
 20
64.204826
 30
0.0
 10
256.370402
 20
64.074408
 30
0.0
 10
256.625571
 20
63.881514
 30
0.0
 10
256.846735
 20
63.674128
 30
0.0
 10
257.033915
 20
63.452252
 30
0.0
 10
257.187004
 20
63.215885
 30
0.0
 10
257.306001
 20
62.965050
 30
0.0
 10
257.391122
 20
62.699725
 30
0.0
 10
257.442151
 20
62.419909
 30
0.0
 10
257.459304
 20
62.125602
 30
0.0
 10
257.428000
 20
61.639137
 30
0.0
 10
257.333660
 20
61.200515
 30
0.0
 10
257.176712
 20
60.809761
 30
0.0
 10
256.956856
 20
60.466850
 30
0.0
 10
256.674178
 20
60.171783
 30
0.0
 10
256.328700
 20
59.924584
 30
0.0
 10
255.920399
 20
59.725275
 30
0.0
 10
255.449298
 20
59.573715
 30
0.0
 10
255.061923
 20
59.473704
 30
0.0
 10
254.716445
 20
59.382246
 30
0.0
 10
254.412840
 20
59.299576
 30
0.0
 10
254.151110
 20
59.225697
 30
0.0
 10
253.931254
 20
59.160369
 30
0.0
 10
253.753294
 20
59.103831
 30
0.0
 10
253.617144
 20
59.056082
 30
0.0
 10
253.523018
 20
59.016886
 30
0.0
 10
253.449047
 20
58.977689
 30
0.0
 10
253.373789
 20
58.929703
 30
0.0
 10
253.297245
 20
58.873165
 30
0.0
 10
253.219414
 20
58.807837
 30
0.0
 10
253.140297
 20
58.733958
 30
0.0
 10
253.059893
 20
58.651289
 30
0.0
 10
252.978203
 20
58.560068
 30
0.0
 10
252.895226
 20
58.460057
 30
0.0
 10
252.747927
 20
58.236755
 30
0.0
 10
252.620353
 20
57.984448
 30
0.0
 10
252.512290
 20
57.703159
 30
0.0
 10
252.423953
 20
57.392865
 30
0.0
 10
252.355342
 20
57.053589
 30
0.0
 10
252.306242
 20
56.685331
 30
0.0
 10
252.276868
 20
56.288068
 30
0.0
 10
252.266148
 20
55.861799
 30
0.0
 10
252.266148
 20
49.041381
 30
0.0
 10
252.266148
 20
42.220938
 30
0.0
 10
252.266148
 20
35.400520
 30
0.0
 10
252.266148
 20
28.580102
 30
0.0
 10
252.266148
 20
21.759660
 30
0.0
 10
252.266148
 20
14.939241
 30
0.0
 10
252.266148
 20
8.118799
 30
0.0
 10
252.266598
 20
1.299236
 30
0.0
  0
LWPOLYLINE
  5
10a
100
AcDbEntity
  8
layer
 62
7
100
AcDbPolyline
 90
89
 70
0
 10
255.658626
 20
1.299236
 30
0.0
 10
255.658626
 20
1.948806
 30
0.0
 10
255.658626
 20
2.598377
 30
0.0
 10
255.658626
 20
3.247923
 30
0.0
 10
255.658626
 20
3.897494
 30
0.0
 10
255.658626
 20
4.547064
 30
0.0
 10
255.658626
 20
5.196635
 30
0.0
 10
255.658626
 20
5.846181
 30
0.0
 10
255.658626
 20
6.495752
 30
0.0
 10
256.158201
 20
6.601464
 30
0.0
 10
256.630932
 20
6.710264
 30
0.0
 10
257.076861
 20
6.821915
 30
0.0
 10
257.495947
 20
6.936416
 30
0.0
 10
257.888231
 20
7.053769
 30
0.0
 10
258.253671
 20
7.174209
 30
0.0
 10
258.592288
 20
7.297500
 30
0.0
 10
258.904083
 20
7.423642
 30
0.0
 10
259.200805
 20
7.558573
 30
0.0
 10
259.494268
 20
7.707995
 30
0.0
 10
259.784471
 20
7.871908
 30
0.0
 10
260.071373
 20
8.050312
 30
0.0
 10
260.355037
 20
8.243207
 30
0.0
 10
260.635421
 20
8.450592
 30
0.0
 10
260.912546
 20
8.672468
 30
0.0
 10
261.186390
 20
8.908836
 30
0.0
 10
261.621492
 20
9.309734
 30
0.0
 10
262.047460
 20
9.746882
 30
0.0
 10
262.464251
 20
10.220282
 30
0.0
 10
262.871909
 20
10.729933
 30
0.0
 10
263.270389
 20
11.275834
 30
0.0
 10
263.659715
 20
11.857986
 30
0.0
 10
264.039885
 20
12.476366
 30
0.0
 10
264.410900
 20
13.131020
 30
0.0
 10
264.768814
 20
13.813207
 30
0.0
 10
265.109704
 20
14.514231
 30
0.0
 10
265.433592
 20
15.234118
 30
0.0
 10
265.740455
 20
15.972843
 30
0.0
 10
266.030337
 20
16.730430
 30
0.0
 10
266.303195
 20
17.506855
 30
0.0
 10
266.559050
 20
18.302141
 30
0.0
 10
266.797882
 20
19.116290
 30
0.0
 10
266.963835
 20
19.727068
 30
0.0
 10
267.126357
 20
20.283469
 30
0.0
 10
267.285664
 20
20.785494
 30
0.0
 10
267.441754
 20
21.233166
 30
0.0
 10
267.594628
 20
21.626439
 30
0.0
 10
267.744072
 20
21.965358
 30
0.0
 10
267.890300
 20
22.249926
 30
0.0
 10
268.033311
 20
22.480116
 30
0.0
 10
268.182755
 20
22.670398
 30
0.0
 10
268.348493
 20
22.835261
 30
0.0
 10
268.530742
 20
22.974706
 30
0.0
 10
268.729285
 20
23.088970
 30
0.0
 10
268.944231
 20
23.177815
 30
0.0
 10
269.175537
 20
23.241243
 30
0.0
 10
269.423223
 20
23.279251
 30
0.0
 10
269.687247
 20
23.291129
 30
0.0
 10
269.970547
 20
23.274500
 30
0.0
 10
270.234228
 20
23.224376
 30
0.0
 10
270.478291
 20
23.140994
 30
0.0
 10
270.702735
 20
23.024355
 30
0.0
 10
270.907496
 20
22.874220
 30
0.0
 10
271.092746
 20
22.690828
 30
0.0
 10
271.258271
 20
22.473940
 30
0.0
 10
271.404284
 20
22.223842
 30
0.0
 10
271.463247
 20
22.080359
 30
0.0
 10
271.514276
 20
21.905043
 30
0.0
 10
271.557372
 20
21.697658
 30
0.0
 10
271.592750
 20
21.458416
 30
0.0
 10
271.620195
 20
21.187294
 30
0.0
 10
271.639491
 20
20.884246
 30
0.0
 10
271.650212
 20
20.549340
 30
0.0
 10
271.654500
 20
20.182508
 30
0.0
 10
271.654500
 20
17.822043
 30
0.0
 10
271.654500
 20
15.461553
 30
0.0
 10
271.654500
 20
13.101088
 30
0.0
 10
271.654500
 20
10.740622
 30
0.0
 10
271.654500
 20
8.380157
 30
0.0
 10
271.654500
 20
6.019668
 30
0.0
 10
271.654500
 20
3.659202
 30
0.0
 10
271.654500
 20
1.298737
 30
0.0
 10
269.654871
 20
1.298737
 30
0.0
 10
267.655242
 20
1.298737
 30
0.0
 10
265.655635
 20
1.298737
 30
0.0
 10
263.656006
 20
1.298737
 30
0.0
 10
261.656377
 20
1.298737
 30
0.0
 10
259.656748
 20
1.298737
 30
0.0
 10
257.657140
 20
1.298737
 30
0.0
 10
255.658626
 20
1.299236
 30
0.0
  0
LWPOLYLINE
  5
10b
100
AcDbEntity
  8
layer
 62
7
100
AcDbPolyline
 90
169
 70
0
 10
290.220033
 20
43.839068
 30
0.0
 10
292.034134
 20
43.839068
 30
0.0
 10
293.848212
 20
43.839068
 30
0.0
 10
295.662312
 20
43.839068
 30
0.0
 10
297.476413
 20
43.839068
 30
0.0
 10
299.290513
 20
43.839068
 30
0.0
 10
301.104592
 20
43.839068
 30
0.0
 10
302.918692
 20
43.839068
 30
0.0
 10
304.732792
 20
43.839068
 30
0.0
 10
305.984195
 20
39.277917
 30
0.0
 10
307.235598
 20
34.716765
 30
0.0
 10
308.487022
 20
30.155614
 30
0.0
 10
309.738425
 20
25.594463
 30
0.0
 10
310.989828
 20
21.033288
 30
0.0
 10
312.241231
 20
16.472136
 30
0.0
 10
313.492656
 20
11.910985
 30
0.0
 10
314.744059
 20
7.349833
 30
0.0
 10
314.817173
 20
7.112516
 30
0.0
 10
314.892645
 20
6.882088
 30
0.0
 10
314.970261
 20
6.658311
 30
0.0
 10
315.050236
 20
6.441423
 30
0.0
 10
315.132355
 20
6.231424
 30
0.0
 10
315.216833
 20
6.028077
 30
0.0
 10
315.303454
 20
5.831619
 30
0.0
 10
315.392434
 20
5.641813
 30
0.0
 10
315.485917
 20
5.497617
 30
0.0
 10
315.604057
 20
5.360310
 30
0.0
 10
315.747068
 20
5.229892
 30
0.0
 10
315.914737
 20
5.106126
 30
0.0
 10
316.107277
 20
4.989249
 30
0.0
 10
316.324474
 20
4.879024
 30
0.0
 10
316.566457
 20
4.775687
 30
0.0
 10
316.833183
 20
4.679240
 30
0.0
 10
317.058227
 20
4.593720
 30
0.0
 10
317.265347
 20
4.508200
 30
0.0
 10
317.454456
 20
4.422680
 30
0.0
 10
317.625556
 20
4.337161
 30
0.0
 10
317.778644
 20
4.251878
 30
0.0
 10
317.913722
 20
4.166596
 30
0.0
 10
318.030790
 20
4.081314
 30
0.0
 10
318.129847
 20
3.995794
 30
0.0
 10
318.214325
 20
3.906473
 30
0.0
 10
318.287439
 20
3.809313
 30
0.0
 10
318.349403
 20
3.704552
 30
0.0
 10
318.400004
 20
3.591951
 30
0.0
 10
318.439455
 20
3.471510
 30
0.0
 10
318.467543
 20
3.343468
 30
0.0
 10
318.484696
 20
3.207587
 30
0.0
 10
318.491128
 20
3.063866
 30
0.0
 10
318.447174
 20
2.685393
 30
0.0
 10
318.315526
 20
2.357377
 30
0.0
 10
318.096078
 20
2.079842
 30
0.0
 10
317.788850
 20
1.852739
 30
0.0
 10
317.393843
 20
1.676236
 30
0.0
 10
316.911056
 20
1.550094
 30
0.0
 10
316.340512
 20
1.474314
 30
0.0
 10
315.682188
 20
1.449133
 30
0.0
 10
313.435944
 20
1.449133
 30
0.0
 10
311.189723
 20
1.449133
 30
0.0
 10
308.943480
 20
1.449133
 30
0.0
 10
306.697236
 20
1.449133
 30
0.0
 10
304.451015
 20
1.449133
 30
0.0
 10
302.204771
 20
1.449133
 30
0.0
 10
299.958550
 20
1.449133
 30
0.0
 10
297.712306
 20
1.449133
 30
0.0
 10
297.448968
 20
1.456260
 30
0.0
 10
297.199138
 20
1.477640
 30
0.0
 10
296.962815
 20
1.512798
 30
0.0
 10
296.739979
 20
1.561972
 30
0.0
 10
296.530715
 20
1.625399
 30
0.0
 10
296.334959
 20
1.702842
 30
0.0
 10
296.152711
 20
1.794300
 30
0.0
 10
295.983970
 20
1.899775
 30
0.0
 10
295.831954
 20
2.016890
 30
0.0
 10
295.700306
 20
2.143269
 30
0.0
 10
295.588813
 20
2.278913
 30
0.0
 10
295.497689
 20
2.423821
 30
0.0
 10
295.426719
 20
2.577994
 30
0.0
 10
295.376118
 20
2.741195
 30
0.0
 10
295.345672
 20
2.913660
 30
0.0
 10
295.334952
 20
3.095389
 30
0.0
 10
295.339240
 20
3.245762
 30
0.0
 10
295.352104
 20
3.386394
 30
0.0
 10
295.374617
 20
3.517287
 30
0.0
 10
295.406136
 20
3.638678
 30
0.0
 10
295.446659
 20
3.750329
 30
0.0
 10
295.496188
 20
3.852240
 30
0.0
 10
295.554722
 20
3.944411
 30
0.0
 10
295.622261
 20
4.026843
 30
0.0
 10
295.705666
 20
4.106899
 30
0.0
 10
295.811370
 20
4.191943
 30
0.0
 10
295.939587
 20
4.281739
 30
0.0
 10
296.090317
 20
4.376286
 30
0.0
 10
296.263561
 20
4.475822
 30
0.0
 10
296.459317
 20
4.580108
 30
0.0
 10
296.677650
 20
4.689383
 30
0.0
 10
296.918475
 20
4.803410
 30
0.0
 10
297.091719
 20
4.882041
 30
0.0
 10
297.251454
 20
4.962572
 30
0.0
 10
297.397681
 20
5.045003
 30
0.0
 10
297.530401
 20
5.129573
 30
0.0
 10
297.649613
 20
5.216043
 30
0.0
 10
297.755317
 20
5.304413
 30
0.0
 10
297.847513
 20
5.394684
 30
0.0
 10
297.926202
 20
5.486856
 30
0.0
 10
297.993741
 20
5.582828
 30
0.0
 10
298.052275
 20
5.684739
 30
0.0
 10
298.101803
 20
5.792351
 30
0.0
 10
298.142327
 20
5.905903
 30
0.0
 10
298.173845
 20
6.025393
 30
0.0
 10
298.196358
 20
6.150584
 30
0.0
 10
298.209223
 20
6.281715
 30
0.0
 10
298.213511
 20
6.418546
 30
0.0
 10
298.211817
 20
6.548489
 30
0.0
 10
298.207529
 20
6.674631
 30
0.0
 10
298.198952
 20
6.796972
 30
0.0
 10
298.186088
 20
6.915274
 30
0.0
 10
298.171079
 20
7.029776
 30
0.0
 10
298.151782
 20
7.140476
 30
0.0
 10
298.129912
 20
7.247138
 30
0.0
 10
298.104612
 20
7.350000
 30
0.0
 10
297.960529
 20
7.912863
 30
0.0
 10
297.816445
 20
8.475725
 30
0.0
 10
297.672362
 20
9.038588
 30
0.0
 10
297.528278
 20
9.601475
 30
0.0
 10
297.384195
 20
10.164338
 30
0.0
 10
297.240112
 20
10.727201
 30
0.0
 10
297.096028
 20
11.290063
 30
0.0
 10
296.951945
 20
11.852926
 30
0.0
 10
295.696039
 20
11.852926
 30
0.0
 10
294.440112
 20
11.852926
 30
0.0
 10
293.184206
 20
11.852926
 30
0.0
 10
291.928301
 20
11.852926
 30
0.0
 10
290.672395
 20
11.852926
 30
0.0
 10
289.416468
 20
11.852926
 30
0.0
 10
288.160563
 20
11.852926
 30
0.0
 10
286.904657
 20
11.852926
 30
0.0
 10
287.026227
 20
12.314876
 30
0.0
 10
287.147798
 20
12.776802
 30
0.0
 10
287.269368
 20
13.238751
 30
0.0
 10
287.390939
 20
13.700677
 30
0.0
 10
287.512509
 20
14.162626
 30
0.0
 10
287.634079
 20
14.624552
 30
0.0
 10
287.755650
 20
15.086501
 30
0.0
 10
287.877220
 20
15.548427
 30
0.0
 10
288.885547
 20
15.548427
 30
0.0
 10
289.893873
 20
15.548427
 30
0.0
 10
290.902200
 20
15.548427
 30
0.0
 10
291.910526
 20
15.548427
 30
0.0
 10
292.918874
 20
15.548427
 30
0.0
 10
293.927201
 20
15.548427
 30
0.0
 10
294.935527
 20
15.548427
 30
0.0
 10
295.943854
 20
15.548427
 30
0.0
 10
295.115589
 20
18.704369
 30
0.0
 10
294.287302
 20
21.860288
 30
0.0
 10
293.459037
 20
25.016230
 30
0.0
 10
292.630772
 20
28.172148
 30
0.0
 10
291.802507
 20
31.328091
 30
0.0
 10
290.974220
 20
34.484009
 30
0.0
 10
290.145955
 20
37.639951
 30
0.0
 10
289.317690
 20
40.795870
 30
0.0
 10
289.430255
 20
41.176290
 30
0.0
 10
289.542820
 20
41.556711
 30
0.0
 10
289.655385
 20
41.937131
 30
0.0
 10
289.767950
 20
42.317552
 30
0.0
 10
289.880515
 20
42.697973
 30
0.0
 10
289.993081
 20
43.078393
 30
0.0
 10
290.105646
 20
43.458814
 30
0.0
 10
290.220033
 20
43.839068
 30
0.0
  0
LWPOLYLINE
  5
10c
100
AcDbEntity
  8
layer
 62
7
100
AcDbPolyline
 90
121
 70
0
 10
287.735238
 20
35.951173
 30
0.0
 10
287.964806
 20
35.147643
 30
0.0
 10
288.194396
 20
34.344089
 30
0.0
 10
288.423965
 20
33.540559
 30
0.0
 10
288.653534
 20
32.737029
 30
0.0
 10
288.883102
 20
31.933476
 30
0.0
 10
289.112692
 20
31.129946
 30
0.0
 10
289.342261
 20
30.326392
 30
0.0
 10
289.571830
 20
29.522862
 30
0.0
 10
288.775061
 20
27.015208
 30
0.0
 10
287.978314
 20
24.507530
 30
0.0
 10
287.181546
 20
21.999875
 30
0.0
 10
286.384799
 20
19.492197
 30
0.0
 10
285.588031
 20
16.984542
 30
0.0
 10
284.791262
 20
14.476864
 30
0.0
 10
283.994515
 20
11.969210
 30
0.0
 10
283.197747
 20
9.461531
 30
0.0
 10
283.130208
 20
9.246069
 30
0.0
 10
283.071674
 20
9.034407
 30
0.0
 10
283.022145
 20
8.826784
 30
0.0
 10
282.981622
 20
8.622962
 30
0.0
 10
282.950103
 20
8.422941
 30
0.0
 10
282.927590
 20
8.226958
 30
0.0
 10
282.914726
 20
8.034776
 30
0.0
 10
282.910438
 20
7.846395
 30
0.0
 10
282.943671
 20
7.374753
 30
0.0
 10
283.043157
 20
6.938032
 30
0.0
 10
283.209111
 20
6.536255
 30
0.0
 10
283.441509
 20
6.169423
 30
0.0
 10
283.740289
 20
5.837534
 30
0.0
 10
284.105472
 20
5.540567
 30
0.0
 10
284.537058
 20
5.278544
 30
0.0
 10
285.035025
 20
5.051441
 30
0.0
 10
285.192616
 20
4.989439
 30
0.0
 10
285.350207
 20
4.927437
 30
0.0
 10
285.507798
 20
4.865436
 30
0.0
 10
285.665390
 20
4.803196
 30
0.0
 10
285.822981
 20
4.741194
 30
0.0
 10
285.980572
 20
4.679192
 30
0.0
 10
286.138163
 20
4.617191
 30
0.0
 10
286.295755
 20
4.554951
 30
0.0
 10
286.574273
 20
4.428809
 30
0.0
 10
286.815655
 20
4.283188
 30
0.0
 10
287.019988
 20
4.118325
 30
0.0
 10
287.187013
 20
3.933982
 30
0.0
 10
287.316946
 20
3.730160
 30
0.0
 10
287.409785
 20
3.506858
 30
0.0
 10
287.465532
 20
3.264243
 30
0.0
 10
287.484829
 20
3.002220
 30
0.0
 10
287.443662
 20
2.638286
 30
0.0
 10
287.320376
 20
2.322884
 30
0.0
 10
287.114972
 20
2.056015
 30
0.0
 10
286.827448
 20
1.837702
 30
0.0
 10
286.457763
 20
1.667850
 30
0.0
 10
286.005937
 20
1.546459
 30
0.0
 10
285.471949
 20
1.473767
 30
0.0
 10
284.855821
 20
1.449537
 30
0.0
 10
283.712438
 20
1.449537
 30
0.0
 10
282.569076
 20
1.449537
 30
0.0
 10
281.425692
 20
1.449537
 30
0.0
 10
280.282330
 20
1.449537
 30
0.0
 10
279.138947
 20
1.449537
 30
0.0
 10
277.995564
 20
1.449537
 30
0.0
 10
276.852202
 20
1.449537
 30
0.0
 10
275.708819
 20
1.449537
 30
0.0
 10
275.384438
 20
1.456664
 30
0.0
 10
275.077489
 20
1.480419
 30
0.0
 10
274.787993
 20
1.517953
 30
0.0
 10
274.515928
 20
1.570690
 30
0.0
 10
274.261316
 20
1.638393
 30
0.0
 10
274.024158
 20
1.721062
 30
0.0
 10
273.804430
 20
1.818935
 30
0.0
 10
273.602242
 20
1.931774
 30
0.0
 10
273.420851
 20
2.057678
 30
0.0
 10
273.263474
 20
2.194747
 30
0.0
 10
273.130326
 20
2.342981
 30
0.0
 10
273.021406
 20
2.502381
 30
0.0
 10
272.936714
 20
2.672945
 30
0.0
 10
272.876250
 20
2.854675
 30
0.0
 10
272.840015
 20
3.047569
 30
0.0
 10
272.827150
 20
3.251629
 30
0.0
 10
272.851808
 20
3.471843
 30
0.0
 10
272.925993
 20
3.682554
 30
0.0
 10
273.049708
 20
3.883526
 30
0.0
 10
273.222951
 20
4.074757
 30
0.0
 10
273.445787
 20
4.256249
 30
0.0
 10
273.718109
 20
4.428002
 30
0.0
 10
274.039981
 20
4.590014
 30
0.0
 10
274.411339
 20
4.742287
 30
0.0
 10
274.768374
 20
4.880306
 30
0.0
 10
275.101203
 20
5.015000
 30
0.0
 10
275.409824
 20
5.146368
 30
0.0
 10
275.694260
 20
5.274173
 30
0.0
 10
275.954511
 20
5.398652
 30
0.0
 10
276.190555
 20
5.519805
 30
0.0
 10
276.402392
 20
5.637394
 30
0.0
 10
276.590000
 20
5.751658
 30
0.0
 10
276.764744
 20
5.869248
 30
0.0
 10
276.937773
 20
5.997053
 30
0.0
 10
277.109086
 20
6.135072
 30
0.0
 10
277.278685
 20
6.283306
 30
0.0
 10
277.446567
 20
6.441756
 30
0.0
 10
277.612949
 20
6.610420
 30
0.0
 10
277.777616
 20
6.789299
 30
0.0
 10
277.940568
 20
6.978392
 30
0.0
 10
278.187032
 20
7.309805
 30
0.0
 10
278.422218
 20
7.667421
 30
0.0
 10
278.646169
 20
8.051238
 30
0.0
 10
278.858864
 20
8.461258
 30
0.0
 10
279.060194
 20
8.897481
 30
0.0
 10
279.250376
 20
9.359905
 30
0.0
 10
279.429194
 20
9.848532
 30
0.0
 10
279.596862
 20
10.363361
 30
0.0
 10
280.614194
 20
13.561992
 30
0.0
 10
281.631526
 20
16.760623
 30
0.0
 10
282.648858
 20
19.959254
 30
0.0
 10
283.666211
 20
23.157885
 30
0.0
 10
284.683543
 20
26.356515
 30
0.0
 10
285.700874
 20
29.555146
 30
0.0
 10
286.718206
 20
32.753777
 30
0.0
 10
287.735238
 20
35.951173
 30
0.0
  0
LWPOLYLINE
  5
10d
100
AcDbEntity
  8
layer
 62
7
100
AcDbPolyline
 90
145
 70
0
 10
341.104676
 20
43.839068
 30
0.0
 10
341.104676
 20
38.540356
 30
0.0
 10
341.104676
 20
33.241668
 30
0.0
 10
341.104676
 20
27.942955
 30
0.0
 10
341.104676
 20
22.644267
 30
0.0
 10
341.104676
 20
17.345555
 30
0.0
 10
341.104676
 20
12.046843
 30
0.0
 10
341.104676
 20
6.748154
 30
0.0
 10
341.104676
 20
1.449442
 30
0.0
 10
339.101509
 20
1.449442
 30
0.0
 10
337.098364
 20
1.449442
 30
0.0
 10
335.095197
 20
1.449442
 30
0.0
 10
333.092052
 20
1.449442
 30
0.0
 10
331.088885
 20
1.449442
 30
0.0
 10
329.085740
 20
1.449442
 30
0.0
 10
327.082573
 20
1.449442
 30
0.0
 10
325.079428
 20
1.449442
 30
0.0
 10
324.962360
 20
1.449442
 30
0.0
 10
324.845292
 20
1.449442
 30
0.0
 10
324.728224
 20
1.449442
 30
0.0
 10
324.611157
 20
1.449442
 30
0.0
 10
324.494089
 20
1.449442
 30
0.0
 10
324.377021
 20
1.449442
 30
0.0
 10
324.259953
 20
1.449442
 30
0.0
 10
324.142886
 20
1.449442
 30
0.0
 10
323.828068
 20
1.456569
 30
0.0
 10
323.531818
 20
1.475573
 30
0.0
 10
323.254135
 20
1.508356
 30
0.0
 10
322.995021
 20
1.554204
 30
0.0
 10
322.754475
 20
1.613117
 30
0.0
 10
322.532496
 20
1.685096
 30
0.0
 10
322.329021
 20
1.770141
 30
0.0
 10
322.144200
 20
1.868489
 30
0.0
 10
321.979533
 20
1.978952
 30
0.0
 10
321.836951
 20
2.100580
 30
0.0
 10
321.716238
 20
2.233373
 30
0.0
 10
321.617609
 20
2.377332
 30
0.0
 10
321.540851
 20
2.532455
 30
0.0
 10
321.485962
 20
2.698744
 30
0.0
 10
321.453157
 20
2.876197
 30
0.0
 10
321.442437
 20
3.064816
 30
0.0
 10
321.464950
 20
3.369552
 30
0.0
 10
321.532489
 20
3.647087
 30
0.0
 10
321.645054
 20
3.897470
 30
0.0
 10
321.802645
 20
4.120772
 30
0.0
 10
322.005262
 20
4.316755
 30
0.0
 10
322.252841
 20
4.485656
 30
0.0
 10
322.545447
 20
4.627239
 30
0.0
 10
322.883056
 20
4.741741
 30
0.0
 10
323.164684
 20
4.822984
 30
0.0
 10
323.415350
 20
4.896151
 30
0.0
 10
323.635077
 20
4.961004
 30
0.0
 10
323.823758
 20
5.017542
 30
0.0
 10
323.981564
 20
5.065766
 30
0.0
 10
324.108494
 20
5.105675
 30
0.0
 10
324.204335
 20
5.137507
 30
0.0
 10
324.269302
 20
5.161263
 30
0.0
 10
324.319045
 20
5.185018
 30
0.0
 10
324.369431
 20
5.214000
 30
0.0
 10
324.420246
 20
5.249158
 30
0.0
 10
324.471704
 20
5.290730
 30
0.0
 10
324.523806
 20
5.338479
 30
0.0
 10
324.576336
 20
5.392641
 30
0.0
 10
324.629510
 20
5.452980
 30
0.0
 10
324.683327
 20
5.519733
 30
0.0
 10
324.784528
 20
5.653239
 30
0.0
 10
324.872222
 20
5.805037
 30
0.0
 10
324.946408
 20
5.975364
 30
0.0
 10
325.007086
 20
6.164220
 30
0.0
 10
325.054470
 20
6.371368
 30
0.0
 10
325.088133
 20
6.597045
 30
0.0
 10
325.107430
 20
6.841109
 30
0.0
 10
325.113862
 20
7.103631
 30
0.0
 10
325.113862
 20
10.989343
 30
0.0
 10
325.113862
 20
14.875054
 30
0.0
 10
325.113862
 20
18.760765
 30
0.0
 10
325.113862
 20
22.646500
 30
0.0
 10
325.113862
 20
26.532211
 30
0.0
 10
325.113862
 20
30.417922
 30
0.0
 10
325.113862
 20
34.303633
 30
0.0
 10
325.113862
 20
38.189345
 30
0.0
 10
325.107430
 20
38.451843
 30
0.0
 10
325.088133
 20
38.695907
 30
0.0
 10
325.054470
 20
38.921584
 30
0.0
 10
325.007300
 20
39.128732
 30
0.0
 10
324.946622
 20
39.317588
 30
0.0
 10
324.872436
 20
39.487915
 30
0.0
 10
324.784743
 20
39.639713
 30
0.0
 10
324.683541
 20
39.773219
 30
0.0
 10
324.629725
 20
39.839972
 30
0.0
 10
324.576551
 20
39.900311
 30
0.0
 10
324.524020
 20
39.954473
 30
0.0
 10
324.471919
 20
40.002222
 30
0.0
 10
324.420461
 20
40.043794
 30
0.0
 10
324.369431
 20
40.078952
 30
0.0
 10
324.319045
 20
40.107934
 30
0.0
 10
324.269302
 20
40.131690
 30
0.0
 10
324.204335
 20
40.155445
 30
0.0
 10
324.108494
 20
40.187277
 30
0.0
 10
323.981564
 20
40.227187
 30
0.0
 10
323.823758
 20
40.275410
 30
0.0
 10
323.634863
 20
40.331948
 30
0.0
 10
323.415157
 20
40.396801
 30
0.0
 10
323.164491
 20
40.469730
 30
0.0
 10
322.882863
 20
40.550974
 30
0.0
 10
322.545254
 20
40.665476
 30
0.0
 10
322.252648
 20
40.807058
 30
0.0
 10
322.005069
 20
40.975960
 30
0.0
 10
321.802452
 20
41.171943
 30
0.0
 10
321.644861
 20
41.395245
 30
0.0
 10
321.532296
 20
41.645628
 30
0.0
 10
321.464757
 20
41.923187
 30
0.0
 10
321.442244
 20
42.227923
 30
0.0
 10
321.452964
 20
42.416304
 30
0.0
 10
321.485769
 20
42.593757
 30
0.0
 10
321.540658
 20
42.760046
 30
0.0
 10
321.617416
 20
42.915169
 30
0.0
 10
321.716045
 20
43.059128
 30
0.0
 10
321.836758
 20
43.191921
 30
0.0
 10
321.979340
 20
43.313549
 30
0.0
 10
322.144007
 20
43.424012
 30
0.0
 10
322.328828
 20
43.522360
 30
0.0
 10
322.532303
 20
43.607405
 30
0.0
 10
322.754282
 20
43.679384
 30
0.0
 10
322.994828
 20
43.738297
 30
0.0
 10
323.253942
 20
43.784145
 30
0.0
 10
323.531625
 20
43.816928
 30
0.0
 10
323.827875
 20
43.835932
 30
0.0
 10
324.142693
 20
43.843059
 30
0.0
 10
324.259760
 20
43.843059
 30
0.0
 10
324.376828
 20
43.843059
 30
0.0
 10
324.493896
 20
43.843059
 30
0.0
 10
324.610964
 20
43.843059
 30
0.0
 10
324.728031
 20
43.843059
 30
0.0
 10
324.845099
 20
43.843059
 30
0.0
 10
324.962167
 20
43.843059
 30
0.0
 10
325.079235
 20
43.843059
 30
0.0
 10
327.082380
 20
43.843059
 30
0.0
 10
329.085547
 20
43.843059
 30
0.0
 10
331.088692
 20
43.843059
 30
0.0
 10
333.091859
 20
43.843059
 30
0.0
 10
335.095004
 20
43.843059
 30
0.0
 10
337.098171
 20
43.843059
 30
0.0
 10
339.101316
 20
43.843059
 30
0.0
 10
341.104676
 20
43.839068
 30
0.0
  0
LWPOLYLINE
  5
10e
100
AcDbEntity
  8
layer
 62
7
100
AcDbPolyline
 90
297
 70
0
 10
352.304352
 20
23.405084
 30
0.0
 10
353.091258
 20
23.265877
 30
0.0
 10
353.831444
 20
23.127620
 30
0.0
 10
354.524952
 20
22.990313
 30
0.0
 10
355.171741
 20
22.853957
 30
0.0
 10
355.771853
 20
22.718550
 30
0.0
 10
356.325266
 20
22.584094
 30
0.0
 10
356.831959
 20
22.450588
 30
0.0
 10
357.291975
 20
22.318033
 30
0.0
 10
357.723261
 20
22.181676
 30
0.0
 10
358.143869
 20
22.036530
 30
0.0
 10
358.553777
 20
21.882594
 30
0.0
 10
358.952987
 20
21.720107
 30
0.0
 10
359.341519
 20
21.548829
 30
0.0
 10
359.719374
 20
21.368763
 30
0.0
 10
360.086529
 20
21.179906
 30
0.0
 10
360.443007
 20
20.982498
 30
0.0
 10
361.028474
 20
20.635312
 30
0.0
 10
361.578478
 20
20.261424
 30
0.0
 10
362.093041
 20
19.860882
 30
0.0
 10
362.572161
 20
19.433616
 30
0.0
 10
363.015839
 20
18.979696
 30
0.0
 10
363.424075
 20
18.499074
 30
0.0
 10
363.796848
 20
17.991776
 30
0.0
 10
364.134201
 20
17.457776
 30
0.0
 10
364.433817
 20
16.902420
 30
0.0
 10
364.693489
 20
16.331076
 30
0.0
 10
364.913216
 20
15.743697
 30
0.0
 10
365.092891
 20
15.140308
 30
0.0
 10
365.232687
 20
14.520931
 30
0.0
 10
365.332602
 20
13.885518
 30
0.0
 10
365.392636
 20
13.234119
 30
0.0
 10
365.411933
 20
12.566684
 30
0.0
 10
365.340964
 20
11.275478
 30
0.0
 10
365.128269
 20
10.057058
 30
0.0
 10
364.773785
 20
8.911425
 30
0.0
 10
364.277491
 20
7.838603
 30
0.0
 10
363.639407
 20
6.838544
 30
0.0
 10
362.859534
 20
5.911248
 30
0.0
 10
361.937872
 20
5.056762
 30
0.0
 10
360.874421
 20
4.275064
 30
0.0
 10
360.281620
 20
3.901200
 30
0.0
 10
359.673618
 20
3.555961
 30
0.0
 10
359.050458
 20
3.239348
 30
0.0
 10
358.412074
 20
2.951383
 30
0.0
 10
357.758531
 20
2.692021
 30
0.0
 10
357.089787
 20
2.461355
 30
0.0
 10
356.405841
 20
2.259196
 30
0.0
 10
355.706715
 20
2.085780
 30
0.0
 10
354.972683
 20
1.936596
 30
0.0
 10
354.184083
 20
1.807366
 30
0.0
 10
353.340895
 20
1.697853
 30
0.0
 10
352.443140
 20
1.608295
 30
0.0
 10
351.490796
 20
1.538691
 30
0.0
 10
350.483863
 20
1.489042
 30
0.0
 10
349.422363
 20
1.459110
 30
0.0
 10
348.306295
 20
1.449608
 30
0.0
 10
347.770614
 20
1.449608
 30
0.0
 10
347.234953
 20
1.449608
 30
0.0
 10
346.699272
 20
1.449608
 30
0.0
 10
346.163590
 20
1.449608
 30
0.0
 10
345.627930
 20
1.449608
 30
0.0
 10
345.092249
 20
1.449608
 30
0.0
 10
344.556589
 20
1.449608
 30
0.0
 10
344.020907
 20
1.449608
 30
0.0
 10
344.020907
 20
1.857205
 30
0.0
 10
344.020907
 20
2.264802
 30
0.0
 10
344.020907
 20
2.672375
 30
0.0
 10
344.020907
 20
3.079972
 30
0.0
 10
344.020907
 20
3.487569
 30
0.0
 10
344.020907
 20
3.895166
 30
0.0
 10
344.020907
 20
4.302739
 30
0.0
 10
344.020907
 20
4.710336
 30
0.0
 10
344.371446
 20
4.736467
 30
0.0
 10
344.702859
 20
4.767824
 30
0.0
 10
345.015147
 20
4.804408
 30
0.0
 10
345.308310
 20
4.846455
 30
0.0
 10
345.582347
 20
4.893728
 30
0.0
 10
345.837237
 20
4.946466
 30
0.0
 10
346.073002
 20
5.004429
 30
0.0
 10
346.289642
 20
5.067619
 30
0.0
 10
346.493975
 20
5.139123
 30
0.0
 10
346.692518
 20
5.221792
 30
0.0
 10
346.885487
 20
5.315626
 30
0.0
 10
347.072881
 20
5.420625
 30
0.0
 10
347.254701
 20
5.536790
 30
0.0
 10
347.430946
 20
5.664119
 30
0.0
 10
347.601401
 20
5.802614
 30
0.0
 10
347.766282
 20
5.952273
 30
0.0
 10
348.044801
 20
6.259408
 30
0.0
 10
348.286183
 20
6.606357
 30
0.0
 10
348.490516
 20
6.993073
 30
0.0
 10
348.657541
 20
7.419603
 30
0.0
 10
348.787474
 20
7.885900
 30
0.0
 10
348.880313
 20
8.391987
 30
0.0
 10
348.936060
 20
8.937889
 30
0.0
 10
348.955357
 20
9.523557
 30
0.0
 10
348.955357
 20
10.404743
 30
0.0
 10
348.955357
 20
11.285906
 30
0.0
 10
348.955357
 20
12.167093
 30
0.0
 10
348.955357
 20
13.048279
 30
0.0
 10
348.955357
 20
13.929442
 30
0.0
 10
348.955357
 20
14.810629
 30
0.0
 10
348.955357
 20
15.691792
 30
0.0
 10
348.955357
 20
16.572978
 30
0.0
 10
348.951068
 20
16.950477
 30
0.0
 10
348.936060
 20
17.306619
 30
0.0
 10
348.912260
 20
17.641429
 30
0.0
 10
348.878812
 20
17.954883
 30
0.0
 10
348.835716
 20
18.247005
 30
0.0
 10
348.783185
 20
18.517746
 30
0.0
 10
348.721007
 20
18.767179
 30
0.0
 10
348.649179
 20
18.995232
 30
0.0
 10
348.564487
 20
19.210219
 30
0.0
 10
348.463500
 20
19.420218
 30
0.0
 10
348.346218
 20
19.625465
 30
0.0
 10
348.212641
 20
19.825962
 30
0.0
 10
348.062768
 20
20.021469
 30
0.0
 10
347.896386
 20
20.212226
 30
0.0
 10
347.713924
 20
20.397994
 30
0.0
 10
347.514951
 20
20.579011
 30
0.0
 10
347.360147
 20
20.713942
 30
0.0
 10
347.201913
 20
20.839134
 30
0.0
 10
347.040462
 20
20.954586
 30
0.0
 10
346.875581
 20
21.060298
 30
0.0
 10
346.707269
 20
21.156270
 30
0.0
 10
346.535742
 20
21.242740
 30
0.0
 10
346.360783
 20
21.319470
 30
0.0
 10
346.182394
 20
21.386461
 30
0.0
 10
345.992856
 20
21.447037
 30
0.0
 10
345.784021
 20
21.504763
 30
0.0
 10
345.556124
 20
21.559638
 30
0.0
 10
345.309103
 20
21.611663
 30
0.0
 10
345.042956
 20
21.660599
 30
0.0
 10
344.757684
 20
21.706685
 30
0.0
 10
344.453286
 20
21.749920
 30
0.0
 10
344.129742
 20
21.790304
 30
0.0
 10
344.129742
 20
22.194005
 30
0.0
 10
344.129742
 20
22.597730
 30
0.0
 10
344.129742
 20
23.001431
 30
0.0
 10
344.129742
 20
23.405156
 30
0.0
 10
344.129742
 20
23.808857
 30
0.0
 10
344.129742
 20
24.212558
 30
0.0
 10
344.129742
 20
24.616282
 30
0.0
 10
344.129742
 20
25.019983
 30
0.0
 10
344.453565
 20
25.045164
 30
0.0
 10
344.758820
 20
25.074383
 30
0.0
 10
345.045507
 20
25.107404
 30
0.0
 10
345.313627
 20
25.144225
 30
0.0
 10
345.563179
 20
25.185084
 30
0.0
 10
345.794162
 20
25.229744
 30
0.0
 10
346.006642
 20
25.278206
 30
0.0
 10
346.200469
 20
25.330705
 30
0.0
 10
346.383146
 20
25.389381
 30
0.0
 10
346.561749
 20
25.456847
 30
0.0
 10
346.736494
 20
25.533102
 30
0.0
 10
346.907164
 20
25.618147
 30
0.0
 10
347.073975
 20
25.711744
 30
0.0
 10
347.236926
 20
25.814130
 30
0.0
 10
347.395804
 20
25.925306
 30
0.0
 10
347.550822
 20
26.045271
 30
0.0
 10
347.692118
 20
26.166186
 30
0.0
 10
347.827625
 20
26.295654
 30
0.0
 10
347.957558
 20
26.433911
 30
0.0
 10
348.081915
 20
26.580957
 30
0.0
 10
348.200698
 20
26.736793
 30
0.0
 10
348.313907
 20
26.901182
 30
0.0
 10
348.421326
 20
27.074359
 30
0.0
 10
348.523171
 20
27.256326
 30
0.0
 10
348.616653
 20
27.440669
 30
0.0
 10
348.698772
 20
27.621211
 30
0.0
 10
348.769742
 20
27.797714
 30
0.0
 10
348.829348
 20
27.970417
 30
0.0
 10
348.877805
 20
28.139318
 30
0.0
 10
348.914897
 20
28.304181
 30
0.0
 10
348.940841
 20
28.465244
 30
0.0
 10
348.955850
 20
28.622505
 30
0.0
 10
348.955850
 20
28.836067
 30
0.0
 10
348.955850
 20
29.049629
 30
0.0
 10
348.955850
 20
29.263191
 30
0.0
 10
348.955850
 20
29.476753
 30
0.0
 10
348.955850
 20
29.690315
 30
0.0
 10
348.955850
 20
29.903877
 30
0.0
 10
348.955850
 20
30.117439
 30
0.0
 10
348.955850
 20
30.331001
 30
0.0
 10
348.955850
 20
31.002569
 30
0.0
 10
348.955850
 20
31.674113
 30
0.0
 10
348.955850
 20
32.345681
 30
0.0
 10
348.955850
 20
33.017249
 30
0.0
 10
348.955850
 20
33.688794
 30
0.0
 10
348.955850
 20
34.360362
 30
0.0
 10
348.955850
 20
35.031906
 30
0.0
 10
348.955850
 20
35.703474
 30
0.0
 10
348.951562
 20
35.914423
 30
0.0
 10
348.936553
 20
36.127747
 30
0.0
 10
348.911252
 20
36.343447
 30
0.0
 10
348.875875
 20
36.561523
 30
0.0
 10
348.830206
 20
36.781974
 30
0.0
 10
348.774459
 20
37.005038
 30
0.0
 10
348.708635
 20
37.230478
 30
0.0
 10
348.632734
 20
37.458293
 30
0.0
 10
348.549543
 20
37.681357
 30
0.0
 10
348.461849
 20
37.892306
 30
0.0
 10
348.369653
 20
38.090902
 30
0.0
 10
348.272954
 20
38.277383
 30
0.0
 10
348.171753
 20
38.451748
 30
0.0
 10
348.066049
 20
38.613998
 30
0.0
 10
347.955842
 20
38.764133
 30
0.0
 10
347.841133
 20
38.902152
 30
0.0
 10
347.667461
 20
39.074855
 30
0.0
 10
347.488858
 20
39.235917
 30
0.0
 10
347.305108
 20
39.385339
 30
0.0
 10
347.116428
 20
39.523121
 30
0.0
 10
346.922601
 20
39.649263
 30
0.0
 10
346.723629
 20
39.763764
 30
0.0
 10
346.519725
 20
39.866626
 30
0.0
 10
346.310676
 20
39.957847
 30
0.0
 10
346.089812
 20
40.039803
 30
0.0
 10
345.850381
 20
40.115108
 30
0.0
 10
345.592381
 20
40.183524
 30
0.0
 10
345.315814
 20
40.245051
 30
0.0
 10
345.020700
 20
40.299926
 30
0.0
 10
344.706997
 20
40.347912
 30
0.0
 10
344.374748
 20
40.389247
 30
0.0
 10
344.023930
 20
40.423692
 30
0.0
 10
344.023930
 20
40.850697
 30
0.0
 10
344.023930
 20
41.277702
 30
0.0
 10
344.023930
 20
41.704708
 30
0.0
 10
344.023930
 20
42.131713
 30
0.0
 10
344.023930
 20
42.558694
 30
0.0
 10
344.023930
 20
42.985699
 30
0.0
 10
344.023930
 20
43.412704
 30
0.0
 10
344.023930
 20
43.839710
 30
0.0
 10
344.541601
 20
43.839710
 30
0.0
 10
345.059273
 20
43.839710
 30
0.0
 10
345.576944
 20
43.839710
 30
0.0
 10
346.094593
 20
43.839710
 30
0.0
 10
346.612264
 20
43.839710
 30
0.0
 10
347.129936
 20
43.839710
 30
0.0
 10
347.647607
 20
43.839710
 30
0.0
 10
348.165278
 20
43.839710
 30
0.0
 10
350.157167
 20
43.794099
 30
0.0
 10
352.027528
 20
43.657267
 30
0.0
 10
353.776340
 20
43.429214
 30
0.0
 10
355.403625
 20
43.109941
 30
0.0
 10
356.909361
 20
42.699422
 30
0.0
 10
358.293570
 20
42.197706
 30
0.0
 10
359.556251
 20
41.604768
 30
0.0
 10
360.697383
 20
40.920610
 30
0.0
 10
361.177896
 20
40.578032
 30
0.0
 10
361.629165
 20
40.217970
 30
0.0
 10
362.051166
 20
39.840447
 30
0.0
 10
362.443922
 20
39.445488
 30
0.0
 10
362.807411
 20
39.033045
 30
0.0
 10
363.141655
 20
38.603142
 30
0.0
 10
363.446631
 20
38.155754
 30
0.0
 10
363.722362
 20
37.690930
 30
0.0
 10
363.967111
 20
37.212471
 30
0.0
 10
364.179162
 20
36.724319
 30
0.0
 10
364.358623
 20
36.226475
 30
0.0
 10
364.505494
 20
35.718939
 30
0.0
 10
364.619775
 20
35.201663
 30
0.0
 10
364.701465
 20
34.674718
 30
0.0
 10
364.750350
 20
34.138058
 30
0.0
 10
364.767503
 20
33.591705
 30
0.0
 10
364.750350
 20
33.052122
 30
0.0
 10
364.700607
 20
32.520308
 30
0.0
 10
364.617631
 20
31.996262
 30
0.0
 10
364.501420
 20
31.479960
 30
0.0
 10
364.351977
 20
30.971449
 30
0.0
 10
364.169300
 20
30.470707
 30
0.0
 10
363.953518
 20
29.977709
 30
0.0
 10
363.704545
 20
29.492503
 30
0.0
 10
363.425726
 20
29.021336
 30
0.0
 10
363.120471
 20
28.570552
 30
0.0
 10
362.788758
 20
28.140150
 30
0.0
 10
362.430607
 20
27.730130
 30
0.0
 10
362.045999
 20
27.340468
 30
0.0
 10
361.634975
 20
26.971213
 30
0.0
 10
361.197494
 20
26.622339
 30
0.0
 10
360.733575
 20
26.293848
 30
0.0
 10
360.375703
 20
26.051233
 30
0.0
 10
360.004324
 20
25.820330
 30
0.0
 10
359.619437
 20
25.601067
 30
0.0
 10
359.221064
 20
25.393444
 30
0.0
 10
358.809182
 20
25.197461
 30
0.0
 10
358.383793
 20
25.013118
 30
0.0
 10
357.944918
 20
24.840416
 30
0.0
 10
357.492534
 20
24.679353
 30
0.0
 10
357.009726
 20
24.523517
 30
0.0
 10
356.479684
 20
24.366731
 30
0.0
 10
355.902364
 20
24.208994
 30
0.0
 10
355.277788
 20
24.050308
 30
0.0
 10
354.605935
 20
23.890671
 30
0.0
 10
353.886826
 20
23.730083
 30
0.0
 10
353.120461
 20
23.568546
 30
0.0
 10
352.304352
 20
23.405084
 30
0.0
  0
LWPOLYLINE
  5
10f
100
AcDbEntity
  8
layer
 62
7
100
AcDbPolyline
 90
193
 70
0
 10
387.451828
 20
44.677542
 30
0.0
 10
387.451828
 20
44.231129
 30
0.0
 10
387.451828
 20
43.784716
 30
0.0
 10
387.451828
 20
43.338302
 30
0.0
 10
387.451828
 20
42.891913
 30
0.0
 10
387.451828
 20
42.445499
 30
0.0
 10
387.451828
 20
41.999086
 30
0.0
 10
387.451828
 20
41.552672
 30
0.0
 10
387.451828
 20
41.106259
 30
0.0
 10
386.910250
 20
40.965389
 30
0.0
 10
386.401863
 20
40.806465
 30
0.0
 10
385.926666
 20
40.629486
 30
0.0
 10
385.484682
 20
40.434691
 30
0.0
 10
385.075888
 20
40.221842
 30
0.0
 10
384.700306
 20
39.991176
 30
0.0
 10
384.357915
 20
39.742503
 30
0.0
 10
384.048736
 20
39.475871
 30
0.0
 10
383.774420
 20
39.192254
 30
0.0
 10
383.536683
 20
38.892603
 30
0.0
 10
383.335566
 20
38.576963
 30
0.0
 10
383.170900
 20
38.245313
 30
0.0
 10
383.042897
 20
37.897651
 30
0.0
 10
382.951344
 20
37.533978
 30
0.0
 10
382.896455
 20
37.154294
 30
0.0
 10
382.877158
 20
36.758598
 30
0.0
 10
382.892167
 20
36.376467
 30
0.0
 10
382.937836
 20
36.006475
 30
0.0
 10
383.013737
 20
35.648622
 30
0.0
 10
383.120084
 20
35.302885
 30
0.0
 10
383.256878
 20
34.969286
 30
0.0
 10
383.423903
 20
34.647851
 30
0.0
 10
383.621375
 20
34.338507
 30
0.0
 10
383.849271
 20
34.041325
 30
0.0
 10
384.111473
 20
33.751864
 30
0.0
 10
384.411947
 20
33.465801
 30
0.0
 10
384.750671
 20
33.183158
 30
0.0
 10
385.127689
 20
32.903912
 30
0.0
 10
385.542937
 20
32.628063
 30
0.0
 10
385.996457
 20
32.355611
 30
0.0
 10
386.488249
 20
32.086556
 30
0.0
 10
387.018313
 20
31.820898
 30
0.0
 10
387.456073
 20
31.622065
 30
0.0
 10
388.013131
 20
31.382348
 30
0.0
 10
388.689487
 20
31.101891
 30
0.0
 10
389.485119
 20
30.780669
 30
0.0
 10
390.400049
 20
30.418682
 30
0.0
 10
391.434255
 20
30.015955
 30
0.0
 10
392.587758
 20
29.572464
 30
0.0
 10
393.860559
 20
29.088208
 30
0.0
 10
394.648022
 20
28.789055
 30
0.0
 10
395.389923
 20
28.497195
 30
0.0
 10
396.086241
 20
28.212604
 30
0.0
 10
396.736974
 20
27.935282
 30
0.0
 10
397.342146
 20
27.665254
 30
0.0
 10
397.901734
 20
27.402518
 30
0.0
 10
398.415761
 20
27.147051
 30
0.0
 10
398.884203
 20
26.898854
 30
0.0
 10
399.326745
 20
26.646784
 30
0.0
 10
399.763090
 20
26.379653
 30
0.0
 10
400.193261
 20
26.097485
 30
0.0
 10
400.617235
 20
25.800280
 30
0.0
 10
401.035034
 20
25.488038
 30
0.0
 10
401.446636
 20
25.160758
 30
0.0
 10
401.852064
 20
24.818418
 30
0.0
 10
402.251295
 20
24.461064
 30
0.0
 10
403.247229
 20
23.475567
 30
0.0
 10
404.110379
 20
22.444436
 30
0.0
 10
404.840744
 20
21.367717
 30
0.0
 10
405.438304
 20
20.245389
 30
0.0
 10
405.903081
 20
19.077426
 30
0.0
 10
406.235073
 20
17.863876
 30
0.0
 10
406.434260
 20
16.604716
 30
0.0
 10
406.500727
 20
15.299945
 30
0.0
 10
406.464706
 20
14.309103
 30
0.0
 10
406.356643
 20
13.339593
 30
0.0
 10
406.176539
 20
12.391464
 30
0.0
 10
405.924457
 20
11.464666
 30
0.0
 10
405.600355
 20
10.559225
 30
0.0
 10
405.204233
 20
9.675141
 30
0.0
 10
404.736091
 20
8.812412
 30
0.0
 10
404.195928
 20
7.971040
 30
0.0
 10
403.592729
 20
7.162640
 30
0.0
 10
402.935520
 20
6.398877
 30
0.0
 10
402.224280
 20
5.679774
 30
0.0
 10
401.459029
 20
5.005308
 30
0.0
 10
400.639769
 20
4.375478
 30
0.0
 10
399.766478
 20
3.790309
 30
0.0
 10
398.839177
 20
3.249753
 30
0.0
 10
397.857866
 20
2.753856
 30
0.0
 10
397.311207
 20
2.511954
 30
0.0
 10
396.751597
 20
2.283189
 30
0.0
 10
396.179080
 20
2.067489
 30
0.0
 10
395.593591
 20
1.864854
 30
0.0
 10
394.995173
 20
1.675285
 30
0.0
 10
394.383826
 20
1.498782
 30
0.0
 10
393.759529
 20
1.335582
 30
0.0
 10
393.122303
 20
1.185447
 30
0.0
 10
392.483941
 20
1.050753
 30
0.0
 10
391.856256
 20
0.934114
 30
0.0
 10
391.239270
 20
0.835291
 30
0.0
 10
390.632984
 20
0.754522
 30
0.0
 10
390.037396
 20
0.691808
 30
0.0
 10
389.452486
 20
0.646910
 30
0.0
 10
388.878275
 20
0.620066
 30
0.0
 10
388.314742
 20
0.610564
 30
0.0
 10
388.314742
 20
1.053081
 30
0.0
 10
388.314742
 20
1.495623
 30
0.0
 10
388.314742
 20
1.938140
 30
0.0
 10
388.314742
 20
2.380681
 30
0.0
 10
388.314742
 20
2.823199
 30
0.0
 10
388.314742
 20
3.265740
 30
0.0
 10
388.314742
 20
3.708258
 30
0.0
 10
388.314742
 20
4.150799
 30
0.0
 10
389.070708
 20
4.321838
 30
0.0
 10
389.772085
 20
4.508794
 30
0.0
 10
390.418874
 20
4.711904
 30
0.0
 10
391.011095
 20
4.930929
 30
0.0
 10
391.548749
 20
5.166109
 30
0.0
 10
392.031815
 20
5.417228
 30
0.0
 10
392.460313
 20
5.684335
 30
0.0
 10
392.834222
 20
5.967477
 30
0.0
 10
393.159160
 20
6.271452
 30
0.0
 10
393.440788
 20
6.601179
 30
0.0
 10
393.679061
 20
6.956609
 30
0.0
 10
393.873960
 20
7.337742
 30
0.0
 10
394.025548
 20
7.744602
 30
0.0
 10
394.133825
 20
8.177190
 30
0.0
 10
394.198791
 20
8.635505
 30
0.0
 10
394.220446
 20
9.119523
 30
0.0
 10
394.186784
 20
9.631906
 30
0.0
 10
394.085582
 20
10.128776
 30
0.0
 10
393.916842
 20
10.610134
 30
0.0
 10
393.680498
 20
11.075955
 30
0.0
 10
393.376658
 20
11.526241
 30
0.0
 10
393.005300
 20
11.961014
 30
0.0
 10
392.566403
 20
12.380251
 30
0.0
 10
392.060010
 20
12.783976
 30
0.0
 10
391.659364
 20
13.047923
 30
0.0
 10
391.177713
 20
13.327407
 30
0.0
 10
390.615016
 20
13.622426
 30
0.0
 10
389.971315
 20
13.932982
 30
0.0
 10
389.246567
 20
14.259050
 30
0.0
 10
388.440815
 20
14.600654
 30
0.0
 10
387.554016
 20
14.957794
 30
0.0
 10
386.586212
 20
15.330447
 30
0.0
 10
385.522461
 20
15.734623
 30
0.0
 10
384.545931
 20
16.108724
 30
0.0
 10
383.656602
 20
16.452752
 30
0.0
 10
382.854495
 20
16.766704
 30
0.0
 10
382.139588
 20
17.050559
 30
0.0
 10
381.511925
 20
17.304339
 30
0.0
 10
380.971462
 20
17.528116
 30
0.0
 10
380.518221
 20
17.721723
 30
0.0
 10
380.110564
 20
17.904165
 30
0.0
 10
379.706830
 20
18.094447
 30
0.0
 10
379.307041
 20
18.292330
 30
0.0
 10
378.911198
 20
18.498053
 30
0.0
 10
378.519300
 20
18.711615
 30
0.0
 10
378.131325
 20
18.932779
 30
0.0
 10
377.747296
 20
19.161782
 30
0.0
 10
377.367211
 20
19.398624
 30
0.0
 10
375.780450
 20
20.482136
 30
0.0
 10
374.405247
 20
21.652023
 30
0.0
 10
373.241602
 20
22.908286
 30
0.0
 10
372.289536
 20
24.250899
 30
0.0
 10
371.549050
 20
25.679911
 30
0.0
 10
371.020123
 20
27.195275
 30
0.0
 10
370.702775
 20
28.797037
 30
0.0
 10
370.597071
 20
30.485150
 30
0.0
 10
370.623443
 20
31.361705
 30
0.0
 10
370.702775
 20
32.221274
 30
0.0
 10
370.835066
 20
33.063858
 30
0.0
 10
371.020101
 20
33.889480
 30
0.0
 10
371.258118
 20
34.698117
 30
0.0
 10
371.549029
 20
35.489769
 30
0.0
 10
371.892814
 20
36.264460
 30
0.0
 10
372.289515
 20
37.022166
 30
0.0
 10
372.733472
 20
37.753146
 30
0.0
 10
373.219067
 20
38.447733
 30
0.0
 10
373.746301
 20
39.105951
 30
0.0
 10
374.315173
 20
39.727751
 30
0.0
 10
374.925684
 20
40.313182
 30
0.0
 10
375.577833
 20
40.862242
 30
0.0
 10
376.271641
 20
41.374886
 30
0.0
 10
377.007067
 20
41.851160
 30
0.0
 10
378.091917
 20
42.452341
 30
0.0
 10
379.239802
 20
42.982682
 30
0.0
 10
380.450682
 20
43.442185
 30
0.0
 10
381.724598
 20
43.830849
 30
0.0
 10
383.061551
 20
44.148697
 30
0.0
 10
384.461497
 20
44.395683
 30
0.0
 10
385.924479
 20
44.571712
 30
0.0
 10
387.451828
 20
44.677542
 30
0.0
  0
LWPOLYLINE
  5
110
100
AcDbEntity
  8
layer
 62
7
100
AcDbPolyline
 90
145
 70
0
 10
390.296768
 20
41.106259
 30
0.0
 10
390.296768
 20
41.533264
 30
0.0
 10
390.296768
 20
41.960246
 30
0.0
 10
390.296768
 20
42.387251
 30
0.0
 10
390.296768
 20
42.814256
 30
0.0
 10
390.296768
 20
43.241261
 30
0.0
 10
390.296768
 20
43.668266
 30
0.0
 10
390.296768
 20
44.095247
 30
0.0
 10
390.296768
 20
44.522253
 30
0.0
 10
390.827925
 20
44.487570
 30
0.0
 10
391.341094
 20
44.445522
 30
0.0
 10
391.836252
 20
44.396348
 30
0.0
 10
392.313399
 20
44.339810
 30
0.0
 10
392.772558
 20
44.275908
 30
0.0
 10
393.213706
 20
44.204879
 30
0.0
 10
393.636844
 20
44.126486
 30
0.0
 10
394.041993
 20
44.040966
 30
0.0
 10
394.458934
 20
43.940718
 30
0.0
 10
394.917514
 20
43.818615
 30
0.0
 10
395.417732
 20
43.674656
 30
0.0
 10
395.959589
 20
43.508843
 30
0.0
 10
396.543084
 20
43.321412
 30
0.0
 10
397.168238
 20
43.112126
 30
0.0
 10
397.835010
 20
42.880985
 30
0.0
 10
398.543442
 20
42.627941
 30
0.0
 10
398.719472
 20
42.569740
 30
0.0
 10
398.887784
 20
42.519379
 30
0.0
 10
399.048162
 20
42.476619
 30
0.0
 10
399.200608
 20
42.441698
 30
0.0
 10
399.345120
 20
42.414617
 30
0.0
 10
399.481913
 20
42.395613
 30
0.0
 10
399.610774
 20
42.383735
 30
0.0
 10
399.731701
 20
42.378984
 30
0.0
 10
399.897011
 20
42.386110
 30
0.0
 10
400.051172
 20
42.405115
 30
0.0
 10
400.194183
 20
42.436710
 30
0.0
 10
400.325831
 20
42.480895
 30
0.0
 10
400.446329
 20
42.537671
 30
0.0
 10
400.555463
 20
42.607037
 30
0.0
 10
400.653449
 20
42.688993
 30
0.0
 10
400.740070
 20
42.783540
 30
0.0
 10
400.839128
 20
42.896141
 30
0.0
 10
400.938185
 20
43.008742
 30
0.0
 10
401.037242
 20
43.121343
 30
0.0
 10
401.136300
 20
43.233944
 30
0.0
 10
401.235357
 20
43.346545
 30
0.0
 10
401.334414
 20
43.459146
 30
0.0
 10
401.433472
 20
43.571748
 30
0.0
 10
401.532529
 20
43.684349
 30
0.0
 10
401.680472
 20
43.844461
 30
0.0
 10
401.836348
 20
43.983193
 30
0.0
 10
402.000157
 20
44.100545
 30
0.0
 10
402.171685
 20
44.196517
 30
0.0
 10
402.351146
 20
44.271347
 30
0.0
 10
402.538540
 20
44.324797
 30
0.0
 10
402.733867
 20
44.356867
 30
0.0
 10
402.936914
 20
44.366369
 30
0.0
 10
403.171821
 20
44.356867
 30
0.0
 10
403.390412
 20
44.328360
 30
0.0
 10
403.592815
 20
44.281087
 30
0.0
 10
403.778708
 20
44.214809
 30
0.0
 10
403.948306
 20
44.129764
 30
0.0
 10
404.101609
 20
44.025715
 30
0.0
 10
404.238617
 20
43.902662
 30
0.0
 10
404.359330
 20
43.760841
 30
0.0
 10
404.464819
 20
43.598591
 30
0.0
 10
404.556158
 20
43.414486
 30
0.0
 10
404.633560
 20
43.208526
 30
0.0
 10
404.696811
 20
42.980711
 30
0.0
 10
404.746125
 20
42.731064
 30
0.0
 10
404.781288
 20
42.459586
 30
0.0
 10
404.802729
 20
42.166277
 30
0.0
 10
404.809162
 20
41.851137
 30
0.0
 10
404.809162
 20
40.570121
 30
0.0
 10
404.809162
 20
39.289129
 30
0.0
 10
404.809162
 20
38.008114
 30
0.0
 10
404.809162
 20
36.727099
 30
0.0
 10
404.809162
 20
35.446107
 30
0.0
 10
404.809162
 20
34.165091
 30
0.0
 10
404.809162
 20
32.884100
 30
0.0
 10
404.809162
 20
31.603084
 30
0.0
 10
404.800585
 20
31.383108
 30
0.0
 10
404.772712
 20
31.173347
 30
0.0
 10
404.726185
 20
30.973563
 30
0.0
 10
404.661219
 20
30.783995
 30
0.0
 10
404.577599
 20
30.604641
 30
0.0
 10
404.475540
 20
30.435501
 30
0.0
 10
404.354827
 20
30.276577
 30
0.0
 10
404.215675
 20
30.127868
 30
0.0
 10
404.061729
 20
29.993174
 30
0.0
 10
403.897062
 20
29.876534
 30
0.0
 10
403.721889
 20
29.777712
 30
0.0
 10
403.535996
 20
29.696943
 30
0.0
 10
403.339382
 20
29.633991
 30
0.0
 10
403.132048
 20
29.589093
 30
0.0
 10
402.914015
 20
29.562249
 30
0.0
 10
402.685304
 20
29.552747
 30
0.0
 10
402.506915
 20
29.559874
 30
0.0
 10
402.331956
 20
29.578878
 30
0.0
 10
402.160428
 20
29.610473
 30
0.0
 10
401.992117
 20
29.654658
 30
0.0
 10
401.827235
 20
29.711434
 30
0.0
 10
401.665785
 20
29.780800
 30
0.0
 10
401.507765
 20
29.862756
 30
0.0
 10
401.352961
 20
29.957541
 30
0.0
 10
401.273844
 20
30.021205
 30
0.0
 10
401.198800
 20
30.088433
 30
0.0
 10
401.127616
 20
30.158987
 30
0.0
 10
401.060291
 20
30.233104
 30
0.0
 10
400.997041
 20
30.310547
 30
0.0
 10
400.937649
 20
30.391316
 30
0.0
 10
400.882331
 20
30.475411
 30
0.0
 10
400.830873
 20
30.563068
 30
0.0
 10
400.781559
 20
30.659991
 30
0.0
 10
400.732888
 20
30.771879
 30
0.0
 10
400.684860
 20
30.898734
 30
0.0
 10
400.637261
 20
31.040554
 30
0.0
 10
400.590305
 20
31.197578
 30
0.0
 10
400.543993
 20
31.369568
 30
0.0
 10
400.498109
 20
31.556523
 30
0.0
 10
400.452868
 20
31.758683
 30
0.0
 10
400.344806
 20
32.140553
 30
0.0
 10
400.218733
 20
32.525320
 30
0.0
 10
400.074649
 20
32.913010
 30
0.0
 10
399.912556
 20
33.303622
 30
0.0
 10
399.732451
 20
33.697132
 30
0.0
 10
399.534337
 20
34.093564
 30
0.0
 10
399.318276
 20
34.492917
 30
0.0
 10
399.084205
 20
34.895193
 30
0.0
 10
398.836047
 20
35.293549
 30
0.0
 10
398.577769
 20
35.681239
 30
0.0
 10
398.309370
 20
36.058262
 30
0.0
 10
398.030852
 20
36.424596
 30
0.0
 10
397.742192
 20
36.780287
 30
0.0
 10
397.443412
 20
37.125288
 30
0.0
 10
397.134512
 20
37.459599
 30
0.0
 10
396.815470
 20
37.783268
 30
0.0
 10
396.146425
 20
38.385423
 30
0.0
 10
395.435743
 20
38.934222
 30
0.0
 10
394.683443
 20
39.429643
 30
0.0
 10
393.889483
 20
39.871686
 30
0.0
 10
393.053907
 20
40.260349
 30
0.0
 10
392.176692
 20
40.595658
 30
0.0
 10
391.257838
 20
40.877589
 30
0.0
 10
390.296768
 20
41.106259
 30
0.0
  0
LWPOLYLINE
  5
111
100
AcDbEntity
  8
layer
 62
7
100
AcDbPolyline
 90
137
 70
0
 10
385.579215
 20
4.151203
 30
0.0
 10
385.579215
 20
3.708685
 30
0.0
 10
385.579215
 20
3.266144
 30
0.0
 10
385.579215
 20
2.823626
 30
0.0
 10
385.579215
 20
2.381085
 30
0.0
 10
385.579215
 20
1.938568
 30
0.0
 10
385.579215
 20
1.496026
 30
0.0
 10
385.579215
 20
1.053509
 30
0.0
 10
385.579215
 20
0.610968
 30
0.0
 10
384.831397
 20
0.634723
 30
0.0
 10
384.064474
 20
0.703139
 30
0.0
 10
383.278405
 20
0.817165
 30
0.0
 10
382.473189
 20
0.976802
 30
0.0
 10
381.648868
 20
1.182050
 30
0.0
 10
380.805402
 20
1.432908
 30
0.0
 10
379.942809
 20
1.729400
 30
0.0
 10
379.061092
 20
2.071480
 30
0.0
 10
378.740914
 20
2.197621
 30
0.0
 10
378.446636
 20
2.312123
 30
0.0
 10
378.178238
 20
2.414984
 30
0.0
 10
377.935719
 20
2.506205
 30
0.0
 10
377.719079
 20
2.585786
 30
0.0
 10
377.528254
 20
2.653727
 30
0.0
 10
377.363373
 20
2.710028
 30
0.0
 10
377.224436
 20
2.754688
 30
0.0
 10
377.099006
 20
2.791034
 30
0.0
 10
376.974648
 20
2.822629
 30
0.0
 10
376.851363
 20
2.849235
 30
0.0
 10
376.729149
 20
2.870615
 30
0.0
 10
376.608222
 20
2.887244
 30
0.0
 10
376.488367
 20
2.899121
 30
0.0
 10
376.369584
 20
2.906248
 30
0.0
 10
376.252087
 20
2.908624
 30
0.0
 10
376.077558
 20
2.906248
 30
0.0
 10
375.914392
 20
2.896746
 30
0.0
 10
375.762375
 20
2.880117
 30
0.0
 10
375.621722
 20
2.858737
 30
0.0
 10
375.492219
 20
2.830230
 30
0.0
 10
375.374079
 20
2.795547
 30
0.0
 10
375.267088
 20
2.754450
 30
0.0
 10
375.171462
 20
2.707177
 30
0.0
 10
375.074763
 20
2.647313
 30
0.0
 10
374.964556
 20
2.568445
 30
0.0
 10
374.840842
 20
2.470572
 30
0.0
 10
374.703619
 20
2.353933
 30
0.0
 10
374.552889
 20
2.218289
 30
0.0
 10
374.388651
 20
2.063640
 30
0.0
 10
374.210906
 20
1.890225
 30
0.0
 10
374.019652
 20
1.697806
 30
0.0
 10
373.855843
 20
1.537694
 30
0.0
 10
373.688818
 20
1.398961
 30
0.0
 10
373.518362
 20
1.281609
 30
0.0
 10
373.344475
 20
1.185637
 30
0.0
 10
373.167158
 20
1.110807
 30
0.0
 10
372.986625
 20
1.057357
 30
0.0
 10
372.802662
 20
1.025287
 30
0.0
 10
372.615268
 20
1.015785
 30
0.0
 10
372.142622
 20
1.057595
 30
0.0
 10
371.732992
 20
1.182786
 30
0.0
 10
371.386378
 20
1.391360
 30
0.0
 10
371.102778
 20
1.683457
 30
0.0
 10
370.882214
 20
2.059032
 30
0.0
 10
370.724623
 20
2.518059
 30
0.0
 10
370.630068
 20
3.060540
 30
0.0
 10
370.598550
 20
3.686474
 30
0.0
 10
370.598550
 20
5.099451
 30
0.0
 10
370.598550
 20
6.512452
 30
0.0
 10
370.598550
 20
7.925429
 30
0.0
 10
370.598550
 20
9.338430
 30
0.0
 10
370.598550
 20
10.751407
 30
0.0
 10
370.598550
 20
12.164385
 30
0.0
 10
370.598550
 20
13.577386
 30
0.0
 10
370.598550
 20
14.990363
 30
0.0
 10
370.607126
 20
15.203687
 30
0.0
 10
370.634142
 20
15.408697
 30
0.0
 10
370.679168
 20
15.605393
 30
0.0
 10
370.742205
 20
15.793774
 30
0.0
 10
370.823252
 20
15.974078
 30
0.0
 10
370.922309
 20
16.146068
 30
0.0
 10
371.039377
 20
16.309744
 30
0.0
 10
371.174455
 20
16.465342
 30
0.0
 10
371.323041
 20
16.607875
 30
0.0
 10
371.480632
 20
16.732354
 30
0.0
 10
371.647229
 20
16.838779
 30
0.0
 10
371.822830
 20
16.927387
 30
0.0
 10
372.007437
 20
16.997940
 30
0.0
 10
372.201049
 20
17.050678
 30
0.0
 10
372.403666
 20
17.085361
 30
0.0
 10
372.615289
 20
17.101990
 30
0.0
 10
372.808043
 20
17.102916
 30
0.0
 10
372.990077
 20
17.088663
 30
0.0
 10
373.161391
 20
17.061344
 30
0.0
 10
373.321984
 20
17.019772
 30
0.0
 10
373.471856
 20
16.964184
 30
0.0
 10
373.611008
 20
16.894580
 30
0.0
 10
373.739654
 20
16.810723
 30
0.0
 10
373.857580
 20
16.712851
 30
0.0
 10
373.968215
 20
16.598112
 30
0.0
 10
374.074777
 20
16.463418
 30
0.0
 10
374.177479
 20
16.308770
 30
0.0
 10
374.276322
 20
16.134404
 30
0.0
 10
374.371091
 20
15.940084
 30
0.0
 10
374.462001
 20
15.725810
 30
0.0
 10
374.548837
 20
15.491580
 30
0.0
 10
374.631813
 20
15.237563
 30
0.0
 10
374.850404
 20
14.575212
 30
0.0
 10
375.092087
 20
13.923551
 30
0.0
 10
375.356819
 20
13.282556
 30
0.0
 10
375.644643
 20
12.652251
 30
0.0
 10
375.955515
 20
12.032613
 30
0.0
 10
376.289480
 20
11.423641
 30
0.0
 10
376.646494
 20
10.825358
 30
0.0
 10
377.026600
 20
10.237742
 30
0.0
 10
377.426388
 20
9.666636
 30
0.0
 10
377.842494
 20
9.117837
 30
0.0
 10
378.274915
 20
8.591367
 30
0.0
 10
378.723654
 20
8.087204
 30
0.0
 10
379.188709
 20
7.605371
 30
0.0
 10
379.670080
 20
7.145869
 30
0.0
 10
380.167768
 20
6.708672
 30
0.0
 10
380.681773
 20
6.293806
 30
0.0
 10
381.223072
 20
5.893502
 30
0.0
 10
381.784633
 20
5.531041
 30
0.0
 10
382.366455
 20
5.206422
 30
0.0
 10
382.968518
 20
4.919646
 30
0.0
 10
383.590864
 20
4.670712
 30
0.0
 10
384.233450
 20
4.459763
 30
0.0
 10
384.896277
 20
4.286585
 30
0.0
 10
385.579387
 20
4.151179
 30
0.0
 10
385.579387
 20
4.151179
 30
0.0
 10
385.579387
 20
4.151179
 30
0.0
 10
385.579387
 20
4.151179
 30
0.0
 10
385.579387
 20
4.151179
 30
0.0
 10
385.579387
 20
4.151155
 30
0.0
 10
385.579387
 20
4.151155
 30
0.0
 10
385.579387
 20
4.151155
 30
0.0
 10
385.579215
 20
4.151203
 30
0.0
  0
ENDSEC
  0
SECTION
  2
OBJECTS
  0
DICTIONARY
  5
C
330
0
100
AcDbDictionary
  3
ACAD_GROUP
350
D
  3
ACAD_MLINESTYLE
350
17
  0
DICTIONARY
  5
D
330
C
100
AcDbDictionary
  0
DICTIONARY
  5
1A
330
C
100
AcDbDictionary
  0
DICTIONARY
  5
17
330
C
100
AcDbDictionary
  3
STANDARD
350
18
  0
DICTIONARY
  5
19
330
C
100
AcDbDictionary
  0
ENDSEC
  0
EOF
